<?xml version="1.0" encoding="utf-8"?>
<!-- Generator: Adobe Illustrator 27.3.1, SVG Export Plug-In . SVG Version: 6.00 Build 0)  -->
<svg version="1.1" id="Layer_1" xmlns="http://www.w3.org/2000/svg" xmlns:xlink="http://www.w3.org/1999/xlink" x="0px" y="0px"
	 viewBox="0 0 466.7 256.3" style="enable-background:new 0 0 466.7 256.3;" xml:space="preserve">
<style type="text/css">
	.st0{clip-path:url(#SVGID_00000013914185523697836240000002768239536750559106_);}
	.st1{fill:#C1996B;}
	.st2{fill:#FC8E3D;}
	.st3{fill:#2D263F;}
	.st4{clip-path:url(#SVGID_00000062149713163977419730000000819098167879690411_);}
	.st5{fill:#00AF9B;}
	.st6{fill:#FFD1BA;}
	.st7{fill:#FC5630;}
	.st8{fill:#4E2C2A;}
	.st9{clip-path:url(#SVGID_00000020398543926753072030000013696738022117761720_);}
	.st10{clip-path:url(#SVGID_00000096025212941082656100000008126214720468706977_);}
	.st11{fill:#FFFFFF;}
	.st12{clip-path:url(#SVGID_00000114063938722014926430000014029564620678816904_);}
	.st13{clip-path:url(#SVGID_00000094604146040702876630000009037849243665715883_);}
	.st14{clip-path:url(#SVGID_00000021113683871845384340000002973778488467126425_);}
	.st15{clip-path:url(#SVGID_00000076596566147681795620000009569403197627245221_);}
	.st16{clip-path:url(#SVGID_00000003791993554831790470000006310419727251657371_);}
	.st17{clip-path:url(#SVGID_00000001649978506405007550000010705819276995461054_);}
	.st18{clip-path:url(#SVGID_00000019641783671158492770000006421039124421339809_);}
	.st19{clip-path:url(#SVGID_00000153688875626085406070000015512345194615069115_);}
	.st20{clip-path:url(#SVGID_00000078753754231450130840000004106692348026827671_);}
</style>
<g id="Group_91" transform="translate(0 256.31) rotate(-90)">
	<g>
		<defs>
			<rect id="SVGID_1_" x="-105.2" y="105.2" width="466.6" height="256.3"/>
		</defs>
		<clipPath id="SVGID_00000045583457125913575870000011297645279008068765_">
			<use xlink:href="#SVGID_1_"  style="overflow:visible;"/>
		</clipPath>
		<g id="Group_4" style="clip-path:url(#SVGID_00000045583457125913575870000011297645279008068765_);">
			<g id="Group_1" transform="translate(171.568 127.68)">
				<path id="Path_1" class="st1" d="M0,42.4L0,42.4C0,19,19,0,42.4,0l0,0l0,0v42.4H0z"/>
			</g>
			<g id="Group_2" transform="translate(171.568 170.052)">
				<path id="Path_2" class="st2" d="M0,0L0,0c0,23.4,19,42.4,42.4,42.4l0,0V0H0z"/>
			</g>
			<g id="Group_3" transform="translate(213.939 127.68)">
				<path id="Path_3" class="st3" d="M0,42.4L0,42.4C0,19,19,0,42.4,0l0,0v42.4H0z"/>
			</g>
		</g>
	</g>
	<path id="Path_5" class="st1" d="M213.9,254.8h42.4v-42.4h-42.4V254.8z"/>
	<g id="Group_5" transform="translate(213.939 254.794)">
		<path id="Path_6" class="st3" d="M0,0l21.2,21.2L42.4,0H0z"/>
	</g>
	<g id="Group_6" transform="translate(213.939 275.979)">
		<path id="Path_7" class="st3" d="M0,21.2h42.4L21.2,0L0,21.2z"/>
	</g>
	<g id="Group_7" transform="translate(129.196 42.938)">
		<path id="Path_8" class="st3" d="M42.4,0H0l21.2,21.2L42.4,0z"/>
	</g>
	<g id="Group_8" transform="translate(129.196 64.124)">
		<path id="Path_9" class="st3" d="M42.4,21.2H0L21.2,0L42.4,21.2z"/>
	</g>
	<g>
		<defs>
			<rect id="SVGID_00000083061978113216349040000012575763241837954188_" x="-105.2" y="105.2" width="466.6" height="256.3"/>
		</defs>
		<clipPath id="SVGID_00000172400235720659140210000014706713688771520423_">
			<use xlink:href="#SVGID_00000083061978113216349040000012575763241837954188_"  style="overflow:visible;"/>
		</clipPath>
		<g id="Group_14" style="clip-path:url(#SVGID_00000172400235720659140210000014706713688771520423_);">
			<g id="Group_9" transform="translate(213.939 297.165)">
				<path id="Path_10" class="st5" d="M21.2,42.4C9.5,42.4,0,32.9,0,21.2C0,9.5,9.5,0,21.2,0c0,0,0,0,0,0c11.7,0,21.2,9.5,21.2,21.2
					c0,0,0,0,0,0C42.4,32.9,32.9,42.4,21.2,42.4C21.2,42.4,21.2,42.4,21.2,42.4"/>
			</g>
			<g id="Group_10" transform="translate(129.196 424.279)">
				<path id="Path_11" class="st6" d="M42.4,0v42.4l0,0C19,42.4,0,23.4,0,0c0,0,0,0,0,0H42.4z"/>
			</g>
			<g id="Group_11" transform="translate(129.196 85.309)">
				<path id="Path_12" class="st1" d="M42.4,21.2L42.4,21.2C42.4,9.5,32.9,0,21.2,0l0,0C9.5,0,0,9.5,0,21.2c0,0,0,0,0,0
					c0,11.7,9.5,21.2,21.2,21.2c0,0,0,0,0,0l0,0C32.9,42.4,42.4,32.9,42.4,21.2C42.4,21.2,42.4,21.2,42.4,21.2"/>
			</g>
			<g id="Group_12" transform="translate(149.306 212.249)">
				<path id="Path_13" class="st7" d="M0,42.7h0.9c11.8,0,21.3-9.6,21.3-21.3c0,0,0,0,0,0h0C22.2,10.1,12.6,0,0.9,0H0V42.7z"/>
			</g>
			<g id="Group_13" transform="translate(129.101 212.249)">
				<path id="Path_14" class="st3" d="M20.2,42.7h0.9C9.4,42.7,0,33.2,0,21.5c0,0,0-0.1,0-0.1h0C0,10.1,9.4,0,21.1,0h-0.9L20.2,42.7
					z"/>
			</g>
		</g>
	</g>
	<path id="Path_16" class="st8" d="M213.9,466.7h42.4v-42.4h-42.4V466.7z"/>
	<g>
		<defs>
			<rect id="SVGID_00000110435547412010553140000017022747487113897654_" x="-105.2" y="105.2" width="466.6" height="256.3"/>
		</defs>
		<clipPath id="SVGID_00000080912560245560349010000009140706622260088469_">
			<use xlink:href="#SVGID_00000110435547412010553140000017022747487113897654_"  style="overflow:visible;"/>
		</clipPath>
		<g id="Group_19" style="clip-path:url(#SVGID_00000080912560245560349010000009140706622260088469_);">
			<g id="Group_15" transform="translate(213.939 42.938)">
				<path id="Path_17" class="st1" d="M42.4,42.4H0C0,19,19,0,42.4,0c0,0,0,0,0,0V42.4z"/>
			</g>
			<g id="Group_16" transform="translate(171.568 339.536)">
				<path id="Path_18" class="st2" d="M0,0h42.4v42.4C19,42.4,0,23.4,0,0"/>
			</g>
			<g id="Group_17" transform="translate(213.939 85.309)">
				<path id="Path_19" class="st2" d="M42.4,21.2L42.4,21.2c0,11.7-9.5,21.2-21.2,21.2c0,0,0,0,0,0H0V0h21.2
					C32.9,0,42.4,9.5,42.4,21.2"/>
			</g>
			<g id="Group_18" transform="translate(213.939 0.567)">
				<path id="Path_20" class="st2" d="M0,21.2L0,21.2C0,9.5,9.5,0,21.2,0c0,0,0,0,0,0h21.2v42.4H21.2C9.5,42.4,0,32.9,0,21.2
					C0,21.2,0,21.2,0,21.2"/>
			</g>
		</g>
	</g>
	<path id="Path_22" class="st5" d="M171.6,212.4h42.4v42.4h-42.4V212.4z"/>
	<g id="Group_20" transform="translate(129.196 127.68)">
		<path id="Path_23" class="st5" d="M0,0h42.4L21.2,31.8L0,0z"/>
	</g>
	<path id="Path_24" class="st1" d="M129.2,170.1h42.4v42.4h-42.4V170.1z"/>
	<path id="Path_25" class="st1" d="M129.2,339.6h42.4v42.4h-42.4V339.6z"/>
	<path id="Path_26" class="st3" d="M171.6,381.9h42.4v42.4h-42.4V381.9z"/>
	<path id="Path_27" class="st5" d="M129.2,254.8h42.4v42.4h-42.4V254.8z"/>
	<g>
		<defs>
			<rect id="SVGID_00000182520246429715008420000014523975671272762243_" x="-105.2" y="105.2" width="466.6" height="256.3"/>
		</defs>
		<clipPath id="SVGID_00000124163647762350973480000011904667858386242439_">
			<use xlink:href="#SVGID_00000182520246429715008420000014523975671272762243_"  style="overflow:visible;"/>
		</clipPath>
		<g id="Group_24" style="clip-path:url(#SVGID_00000124163647762350973480000011904667858386242439_);">
			<g id="Group_21" transform="translate(129.196 297.165)">
				<path id="Path_28" class="st8" d="M0,21.2V0h42.4v21.2c0,11.7-9.5,21.2-21.2,21.2c0,0,0,0,0,0l0,0C9.5,42.4,0,32.9,0,21.2
					C0,21.2,0,21.2,0,21.2"/>
			</g>
			<g id="Group_22" transform="translate(182.16 95.902)">
				<path id="Path_29" class="st11" d="M10.6,0c5.9,0,10.6,4.7,10.6,10.6s-4.7,10.6-10.6,10.6S0,16.5,0,10.6S4.7,0,10.6,0
					C10.6,0,10.6,0,10.6,0"/>
			</g>
			<g id="Group_23" transform="translate(182.129 233.015)">
				<path id="Path_30" class="st11" d="M21.2,0H0c0,5.8,4.7,10.6,10.5,10.6c0,0,0.1,0,0.1,0c5.8,0,10.6-4.7,10.6-10.5
					C21.2,0.1,21.2,0.1,21.2,0"/>
			</g>
		</g>
	</g>
	<g id="Group_25" transform="translate(171.567 403.093)">
		<path id="Path_32" class="st5" d="M21.2,21.2H0V0L21.2,21.2z"/>
	</g>
	<g id="Group_26" transform="translate(192.753 381.907)">
		<path id="Path_33" class="st5" d="M21.2,21.2H0V0L21.2,21.2z"/>
	</g>
	<g id="Group_27" transform="translate(171.567 381.907)">
		<path id="Path_34" class="st5" d="M21.2,21.2H0V0L21.2,21.2z"/>
	</g>
	<g id="Group_28" transform="translate(192.753 403.093)">
		<path id="Path_35" class="st5" d="M21.2,21.2H0V0L21.2,21.2z"/>
	</g>
	<path id="Path_36" class="st3" d="M171.6,43h42.4V0.6h-42.4V43z"/>
	<g id="Group_29" transform="translate(171.568 0.567)">
		<path id="Path_37" class="st6" d="M0,0v21.2L21.2,0H0z"/>
	</g>
	<g id="Group_30" transform="translate(192.753 21.752)">
		<path id="Path_38" class="st6" d="M0,21.2V0h21.2L0,21.2z"/>
	</g>
	<g id="Group_31" transform="translate(192.754 0.567)">
		<path id="Path_39" class="st6" d="M0,0v21.2L21.2,0H0z"/>
	</g>
	<g id="Group_32" transform="translate(171.568 21.752)">
		<path id="Path_40" class="st6" d="M0,21.2V0h21.2L0,21.2z"/>
	</g>
	<g>
		<defs>
			<rect id="SVGID_00000112606868034571436090000013775309934317298832_" x="-105.2" y="105.2" width="466.6" height="256.3"/>
		</defs>
		<clipPath id="SVGID_00000180342295839044159180000006117705188112450944_">
			<use xlink:href="#SVGID_00000112606868034571436090000013775309934317298832_"  style="overflow:visible;"/>
		</clipPath>
		<g id="Group_35" style="clip-path:url(#SVGID_00000180342295839044159180000006117705188112450944_);">
			<g id="Group_33" transform="translate(192.753 339.536)">
				<path id="Path_41" class="st11" d="M21.2,0H0c0,11.7,9.5,21.2,21.2,21.2c0,0,0,0,0,0V0z"/>
			</g>
			<g id="Group_34" transform="translate(150.382 381.908)">
				<path id="Path_42" class="st7" d="M21.2,0L21.2,0v42.4l0,0c-11.7,0.1-21.3-9.3-21.3-21C-0.2,9.7,9.2,0.1,20.9,0
					C21,0,21.1,0,21.2,0"/>
			</g>
		</g>
	</g>
	<path id="Path_44" class="st8" d="M213.9,381.9h42.4v-42.4h-42.4V381.9z"/>
	<g>
		<defs>
			<rect id="SVGID_00000039124338467646243380000016292468070006511238_" x="-105.2" y="105.2" width="466.6" height="256.3"/>
		</defs>
		<clipPath id="SVGID_00000029735560361408204280000016817143057537320323_">
			<use xlink:href="#SVGID_00000039124338467646243380000016292468070006511238_"  style="overflow:visible;"/>
		</clipPath>
		<g id="Group_46" style="clip-path:url(#SVGID_00000029735560361408204280000016817143057537320323_);">
			<g id="Group_36" transform="translate(213.939 381.908)">
				<path id="Path_45" class="st2" d="M21.2,0h21.2v21.2c0,11.7-9.5,21.2-21.2,21.2c0,0,0,0,0,0l0,0c-11.7,0.1-21.3-9.3-21.3-21
					C-0.2,9.7,9.2,0.1,20.9,0C21,0,21.1,0,21.2,0"/>
			</g>
			<g id="Group_37" transform="translate(171.567 424.279)">
				<path id="Path_46" class="st7" d="M21.2,0h21.2v21.2c0,11.7-9.5,21.2-21.2,21.2c0,0,0,0,0,0l0,0c-11.7,0.1-21.3-9.3-21.3-21
					C-0.2,9.7,9.2,0.1,20.9,0C21,0,21.1,0,21.2,0"/>
			</g>
			<g id="Group_38" transform="translate(171.567 42.938)">
				<path id="Path_47" class="st5" d="M21.2,42.4h21.2V21.2C42.4,9.5,32.9,0,21.2,0c0,0,0,0,0,0l0,0C9.5,0,0,9.5,0,21.2c0,0,0,0,0,0
					C0,32.9,9.5,42.4,21.2,42.4"/>
			</g>
			<g id="Group_39" transform="translate(213.939 170.051)">
				<path id="Path_48" class="st5" d="M21.2,42.4h21.2V21.2C42.4,9.5,32.9,0,21.2,0c0,0,0,0,0,0l0,0C9.5,0,0,9.5,0,21.2c0,0,0,0,0,0
					C0,32.9,9.5,42.4,21.2,42.4"/>
			</g>
			<g id="Group_40" transform="translate(171.568 254.794)">
				<path id="Path_49" class="st7" d="M21.5,21.2L21.5,21.2C21.5,9.5,12,0,0.3,0l0,0H0v42.4h0.3C12,42.4,21.5,32.9,21.5,21.2
					C21.5,21.2,21.5,21.2,21.5,21.2"/>
			</g>
			<g id="Group_41" transform="translate(134.194 3.141)">
				<path id="Path_50" class="st5" d="M16.5,32.7c-7.4,0-13.3-6-13.4-13.4c0-3.8,1.6-7.5,4.5-10C8.1,9,8.5,8.6,9,8.3
					c1.1,1.7,2.3,4.1,4,7.1c0.5,0.9,0.9,1.8,1.5,2.7c8.6,16,16.4,15.2,17.3,15.1L33,33V19.3c0-9.1-7.4-16.5-16.5-16.5
					c-2.3,0-4.5,0.5-6.6,1.4C9.2,3.3,8.3,2.6,7.3,1.9C5.2,0.7,2.8,0,0.4,0v3.1c1.8,0,3.7,0.5,5.3,1.4c0.5,0.3,1,0.8,1.4,1.2
					C6.6,6.2,6.1,6.6,5.6,7C2,10.1,0,14.6,0,19.3c0,9.1,7.4,16.5,16.5,16.5V32.7z M11.7,6.8C13.3,6.3,14.9,6,16.5,6
					c7.4,0,13.4,6,13.4,13.4V30c-2.3-0.6-7.2-3.1-12.7-13.3c-0.5-1-1-1.9-1.5-2.7C14.1,11,12.9,8.7,11.7,6.8"/>
			</g>
			<g id="Group_42" transform="translate(46.03 169.485)">
				<path id="Path_51" class="st1" d="M42.4,42.4L42.4,42.4V0C19,0,0,19,0,42.4c0,0,0,0,0,0H42.4z"/>
			</g>
			<g id="Group_43" transform="translate(0 84.743)">
				<path id="Path_52" class="st6" d="M88.4,21.2L88.4,21.2c0,11.7-9.5,21.2-21.2,21.2c0,0,0,0,0,0H0V0h67.2
					C78.9,0,88.4,9.5,88.4,21.2"/>
			</g>
			<g id="Group_44" transform="translate(0 84.743)">
				<path id="Path_53" class="st5" d="M46,21.2L46,21.2c0,11.7-9.5,21.2-21.2,21.2c0,0,0,0,0,0H0V0h24.8C36.5,0,46,9.5,46,21.2
					C46,21.2,46,21.2,46,21.2"/>
			</g>
			<g id="Group_45" transform="translate(46.03 0)">
				<path id="Path_54" class="st6" d="M0,0L0,0c0,23.4,19,42.4,42.4,42.4V0H0z"/>
			</g>
		</g>
	</g>
	<g id="Group_47" transform="translate(88.401 296.599)">
		<path id="Path_56" class="st7" d="M42.4,0H0l21.2,21.2L42.4,0z"/>
	</g>
	<g id="Group_48" transform="translate(88.401 317.784)">
		<path id="Path_57" class="st7" d="M42.4,21.2H0L21.2,0L42.4,21.2z"/>
	</g>
	<g>
		<defs>
			<rect id="SVGID_00000033362362003895057100000009347190641509336454_" x="-105.2" y="105.2" width="466.6" height="256.3"/>
		</defs>
		<clipPath id="SVGID_00000144310620082889191270000008928796349307618228_">
			<use xlink:href="#SVGID_00000033362362003895057100000009347190641509336454_"  style="overflow:visible;"/>
		</clipPath>
		<g id="Group_57" style="clip-path:url(#SVGID_00000144310620082889191270000008928796349307618228_);">
			<g id="Group_49" transform="translate(3.659 211.856)">
				<path id="Path_58" class="st8" d="M42.4,0H0c0,23.4,19,42.4,42.4,42.4c0,0,0,0,0,0V0z"/>
			</g>
			<g id="Group_50" transform="translate(46.03 211.856)">
				<path id="Path_59" class="st5" d="M0,42.4h42.4C42.4,19,23.4,0,0,0c0,0,0,0,0,0V42.4z"/>
			</g>
			<g id="Group_51" transform="translate(46.03 296.599)">
				<path id="Path_60" class="st5" d="M0,0v42.4l0,0c23.4,0,42.4-19,42.4-42.4H0z"/>
			</g>
			<g id="Group_52" transform="translate(46.03 296.599)">
				<path id="Path_61" class="st11" d="M0,0v21.2c11.7,0,21.2-9.5,21.2-21.2c0,0,0,0,0,0H0z"/>
			</g>
			<g id="Group_53" transform="translate(88.401 381.341)">
				<path id="Path_62" class="st5" d="M0,0v42.4l0,0c23.4,0,42.4-19,42.4-42.4H0z"/>
			</g>
			<g id="Group_54" transform="translate(3.659 381.341)">
				<path id="Path_63" class="st6" d="M42.4,0v42.4l0,0C19,42.4,0,23.4,0,0c0,0,0,0,0,0H42.4z"/>
			</g>
			<g id="Group_55" transform="translate(46.03 338.97)">
				<path id="Path_64" class="st3" d="M0,42.4V0l0,0c23.4,0,42.4,19,42.4,42.4c0,0,0,0,0,0H0z"/>
			</g>
			<g id="Group_56" transform="translate(3.658 254.228)">
				<path id="Path_65" class="st1" d="M127.1,0L127.1,0c0,23.4-19,42.4-42.4,42.4H0C0,19,19,0,42.4,0H127.1z"/>
			</g>
		</g>
	</g>
	<path id="Path_67" class="st7" d="M46,254.3h42.4v42.4H46V254.3z"/>
	<g>
		<defs>
			<rect id="SVGID_00000180353059616061002350000006690144125536095628_" x="-105.2" y="105.2" width="466.6" height="256.3"/>
		</defs>
		<clipPath id="SVGID_00000057863292273064823000000008568765042920633776_">
			<use xlink:href="#SVGID_00000180353059616061002350000006690144125536095628_"  style="overflow:visible;"/>
		</clipPath>
		<g id="Group_66" style="clip-path:url(#SVGID_00000057863292273064823000000008568765042920633776_);">
			<g id="Group_58" transform="translate(3.659 127.114)">
				<path id="Path_68" class="st6" d="M42.4,21.2L42.4,21.2C42.4,9.5,32.9,0,21.2,0c0,0,0,0,0,0l0,0C9.5,0,0,9.5,0,21.2c0,0,0,0,0,0
					c0,11.7,9.5,21.2,21.2,21.2c0,0,0,0,0,0l0,0C32.9,42.4,42.4,32.9,42.4,21.2C42.4,21.2,42.4,21.2,42.4,21.2"/>
			</g>
			<g id="Group_59" transform="translate(46.008 127.431)">
				<path id="Path_69" class="st7" d="M21.5,0h-0.3C9.5,0,0,9.5,0,20.2h0c-0.1,11.7,9.4,21.3,21.2,21.4c0,0,0,0,0.1,0h0.3L21.5,0z"
					/>
			</g>
			<g id="Group_60" transform="translate(67.226 127.431)">
				<path id="Path_70" class="st3" d="M0.3,0H0c11.7,0,21.2,9.5,21.2,20.2h0c0.1,11.7-9.3,21.3-21,21.4c0,0-0.1,0-0.1,0h0.3L0.3,0z"
					/>
			</g>
			<g id="Group_61" transform="translate(24.813 169.485)">
				<path id="Path_71" class="st7" d="M0,42.4L0,42.4c11.7,0,21.2-9.5,21.2-21.2l0,0C21.2,9.5,11.7,0,0,0c0,0,0,0,0,0l0,0V42.4z"/>
			</g>
			<g id="Group_62" transform="translate(3.627 169.485)">
				<path id="Path_72" class="st3" d="M21.2,42.4L21.2,42.4C9.5,42.4,0,32.9,0,21.2c0,0,0,0,0,0l0,0C0,9.5,9.5,0,21.2,0c0,0,0,0,0,0
					l0,0V42.4z"/>
			</g>
			<g id="Group_63" transform="translate(46.03 423.713)">
				<path id="Path_73" class="st1" d="M0,0L0,0c0,23.4,19,42.4,42.4,42.4C42.4,19,23.4,0,0,0z"/>
			</g>
			<g id="Group_64" transform="translate(109.64 424.092)">
				<path id="Path_74" class="st5" d="M0.6,41.6H0c11.7,0,21.2-9.5,21.1-21.2c0,0,0-0.1,0-0.1h0C21.1,9.5,11.7,0,0,0h0.6L0.6,41.6z"
					/>
			</g>
			<g id="Group_65" transform="translate(88.391 424.092)">
				<path id="Path_75" class="st3" d="M21.9,41.6h-0.6C9.5,41.5,0,32,0,20.3c0,0,0,0,0-0.1h0C0,9.5,9.6,0,21.3,0h0.6L21.9,41.6z"/>
			</g>
		</g>
	</g>
	<path id="Path_77" class="st6" d="M88.4,127.1h42.4v42.4H88.4V127.1z"/>
	<g>
		<defs>
			<rect id="SVGID_00000134930372292515569550000004328776705924909719_" x="-105.2" y="105.2" width="466.6" height="256.3"/>
		</defs>
		<clipPath id="SVGID_00000116935686994065755790000003184096253795573653_">
			<use xlink:href="#SVGID_00000134930372292515569550000004328776705924909719_"  style="overflow:visible;"/>
		</clipPath>
		<g id="Group_68" style="clip-path:url(#SVGID_00000116935686994065755790000003184096253795573653_);">
			<g id="Group_67" transform="translate(88.401 42.371)">
				<path id="Path_78" class="st7" d="M0,42.4V0l0,0c23.4,0,42.4,19,42.4,42.4c0,0,0,0,0,0H0z"/>
			</g>
		</g>
	</g>
	<g id="Group_69" transform="translate(46.03 42.371)">
		<path id="Path_80" class="st3" d="M42.4,42.4H0V0h42.4V42.4z"/>
	</g>
	<g>
		<defs>
			<rect id="SVGID_00000105406684792637592760000009115271972824952748_" x="-105.2" y="105.2" width="466.6" height="256.3"/>
		</defs>
		<clipPath id="SVGID_00000149383423237604848690000016500132450741320851_">
			<use xlink:href="#SVGID_00000105406684792637592760000009115271972824952748_"  style="overflow:visible;"/>
		</clipPath>
		<g id="Group_71" style="clip-path:url(#SVGID_00000149383423237604848690000016500132450741320851_);">
			<g id="Group_70" transform="translate(3.659 423.713)">
				<path id="Path_81" class="st5" d="M0,0v42.4l0,0c23.4,0,42.4-19,42.4-42.4H0z"/>
			</g>
		</g>
	</g>
	<path id="Path_83" class="st2" d="M46,339H3.7v-42.4H46V339z"/>
	<g>
		<defs>
			<rect id="SVGID_00000005945885060152739900000012106538942452370105_" x="-105.2" y="105.2" width="466.6" height="256.3"/>
		</defs>
		<clipPath id="SVGID_00000150822959483514264390000003296698135815593860_">
			<use xlink:href="#SVGID_00000005945885060152739900000012106538942452370105_"  style="overflow:visible;"/>
		</clipPath>
		<g id="Group_74" style="clip-path:url(#SVGID_00000150822959483514264390000003296698135815593860_);">
			<g id="Group_72" transform="translate(14.252 137.707)">
				<path id="Path_84" class="st11" d="M10.6,0c5.9,0,10.6,4.7,10.6,10.6s-4.7,10.6-10.6,10.6S0,16.5,0,10.6S4.7,0,10.6,0
					C10.6,0,10.6,0,10.6,0"/>
			</g>
			<g id="Group_73" transform="translate(56.623 264.821)">
				<path id="Path_85" class="st11" d="M10.6,0c5.9,0,10.6,4.7,10.6,10.6s-4.7,10.6-10.6,10.6S0,16.5,0,10.6S4.7,0,10.6,0
					C10.6,0,10.6,0,10.6,0"/>
			</g>
		</g>
	</g>
	<g id="Group_75" transform="translate(109.587 127.114)">
		<path id="Path_87" class="st5" d="M0,0h21.2v21.2L0,0z"/>
	</g>
	<g id="Group_76" transform="translate(88.401 148.3)">
		<path id="Path_88" class="st5" d="M0,0h21.2v21.2L0,0z"/>
	</g>
	<g id="Group_77" transform="translate(109.587 148.3)">
		<path id="Path_89" class="st5" d="M0,0h21.2v21.2L0,0z"/>
	</g>
	<g id="Group_78" transform="translate(88.401 127.114)">
		<path id="Path_90" class="st5" d="M0,0h21.2v21.2L0,0z"/>
	</g>
	<g>
		<defs>
			<rect id="SVGID_00000018220037166624506820000009617746043837069446_" x="-105.2" y="105.2" width="466.6" height="256.3"/>
		</defs>
		<clipPath id="SVGID_00000068666130377707647250000004980253949139452311_">
			<use xlink:href="#SVGID_00000018220037166624506820000009617746043837069446_"  style="overflow:visible;"/>
		</clipPath>
		<g id="Group_84" style="clip-path:url(#SVGID_00000068666130377707647250000004980253949139452311_);">
			<g id="Group_79" transform="translate(88.401 84.743)">
				<path id="Path_91" class="st6" d="M0,0h42.4c0,11.7-9.5,21.2-21.2,21.2C9.5,21.2,0,11.7,0,0C0,0,0,0,0,0"/>
			</g>
			<g id="Group_80" transform="translate(88.401 169.485)">
				<path id="Path_92" class="st7" d="M42.4,42.4V0l0,0C19,0,0,19,0,42.4c0,0,0,0,0,0H42.4z"/>
			</g>
			<g id="Group_81" transform="translate(88.401 211.857)">
				<path id="Path_93" class="st5" d="M42.4,0H0c0,11.7,9.5,21.2,21.2,21.2c0,0,0,0,0,0C32.9,21.2,42.4,11.7,42.4,0"/>
			</g>
			<g id="Group_82" transform="translate(88.508 0)">
				<path id="Path_94" class="st5" d="M21.2,42.4h21.2V21.2C42.4,9.5,32.9,0,21.2,0c0,0,0,0,0,0l0,0C9.5,0,0,9.5,0,21.2c0,0,0,0,0,0
					C0,32.9,9.5,42.4,21.2,42.4"/>
			</g>
			<g id="Group_83" transform="translate(46.03 381.341)">
				<path id="Path_95" class="st2" d="M21.2,0h21.2v21.2c0,11.7-9.5,21.2-21.2,21.2c0,0,0,0,0,0l0,0C9.5,42.4,0,32.9,0,21.2l0,0
					C0,9.5,9.5,0,21.2,0C21.2,0,21.2,0,21.2,0"/>
			</g>
		</g>
	</g>
	<path id="Path_97" class="st5" d="M3.7,42.4H46V0H3.7V42.4z"/>
	<g>
		<defs>
			<rect id="SVGID_00000096769249937667442330000006893116084173709246_" x="-105.2" y="105.2" width="466.6" height="256.3"/>
		</defs>
		<clipPath id="SVGID_00000072277024974598440690000017966935950967091863_">
			<use xlink:href="#SVGID_00000096769249937667442330000006893116084173709246_"  style="overflow:visible;"/>
		</clipPath>
		<g id="Group_90" style="clip-path:url(#SVGID_00000072277024974598440690000017966935950967091863_);">
			<g id="Group_85" transform="translate(9.246 341.602)">
				<path id="Path_98" class="st5" d="M16.5,32.7c-7.4,0-13.3-6-13.4-13.4c0-3.8,1.6-7.5,4.5-10C8.1,9,8.5,8.6,9,8.3
					c1.1,1.7,2.3,4.1,4,7.1c0.5,0.9,0.9,1.8,1.5,2.7c8.6,16,16.4,15.3,17.3,15.1L33,33V19.3c0-9.1-7.4-16.5-16.5-16.5
					c-2.3,0-4.5,0.5-6.6,1.4C9.2,3.3,8.3,2.6,7.3,1.9C5.2,0.7,2.8,0,0.4,0v3.1c1.8,0,3.7,0.5,5.3,1.4c0.5,0.3,1,0.8,1.4,1.2
					C6.6,6.2,6.1,6.6,5.6,7C2,10.1,0,14.6,0,19.3c0,9.1,7.4,16.5,16.5,16.5V32.7z M11.7,6.8C13.3,6.3,14.9,6,16.5,6
					c7.4,0,13.4,6,13.4,13.4V30c-2.3-0.6-7.2-3.1-12.7-13.3c-0.5-1-1-1.9-1.4-2.7C14.1,11,12.9,8.7,11.7,6.8"/>
			</g>
			<g id="Group_86" transform="translate(92.64 341.83)">
				<path id="Path_99" class="st3" d="M16.5,32.7c-7.4,0-13.3-6-13.4-13.4c0-3.8,1.6-7.5,4.5-10C8.1,9,8.5,8.6,9,8.3
					c1.1,1.7,2.3,4.1,4,7.1c0.5,0.9,0.9,1.8,1.5,2.7c8.6,16,16.4,15.3,17.3,15.1L33,33V19.3c0-9.1-7.4-16.5-16.5-16.5
					c-2.3,0-4.5,0.5-6.6,1.4C9.2,3.3,8.3,2.6,7.3,1.9C5.2,0.7,2.8,0,0.4,0v3.1c1.8,0,3.7,0.5,5.3,1.4c0.5,0.3,1,0.8,1.4,1.2
					C6.6,6.2,6.1,6.6,5.6,7C2,10.1,0,14.6,0,19.3c0,9.1,7.4,16.5,16.5,16.5V32.7z M11.7,6.8C13.3,6.3,14.9,6,16.5,6
					c7.4,0,13.4,6,13.4,13.4V30c-2.3-0.6-7.2-3.1-12.7-13.3c-0.5-1-1-1.9-1.4-2.7C14.1,11,12.9,8.7,11.7,6.8"/>
			</g>
			<g id="Group_87" transform="translate(8.489 42.87)">
				<path id="Path_100" class="st7" d="M16.5,32.7c-7.4,0-13.3-6-13.4-13.4c0-3.8,1.6-7.5,4.5-10C8.1,9,8.5,8.6,9,8.3
					c1.1,1.7,2.3,4.1,4,7.1c0.5,0.9,0.9,1.8,1.5,2.7c8.6,16,16.4,15.3,17.3,15.1L33,33V19.3c0-9.1-7.4-16.5-16.5-16.5
					c-2.3,0-4.5,0.5-6.6,1.4C9.2,3.3,8.3,2.6,7.3,1.9C5.2,0.7,2.8,0,0.4,0v3.1c1.8,0,3.7,0.5,5.3,1.4c0.5,0.3,1,0.8,1.4,1.2
					C6.6,6.2,6.1,6.6,5.6,7C2,10.1,0,14.6,0,19.3c0,9.1,7.4,16.5,16.5,16.5V32.7z M11.7,6.8C13.3,6.3,14.9,6,16.5,6
					c7.4,0,13.4,6,13.4,13.4V30c-2.3-0.6-7.2-3.1-12.7-13.3c-0.5-1-1-1.9-1.4-2.7C14.1,11,12.9,8.7,11.7,6.8"/>
			</g>
			<g id="Group_88" transform="translate(188.003 94.546)">
				<path id="Path_101" class="st3" d="M5.4,10.7C10.9,21,15.8,23.5,18.1,24V13.4C18.1,6,12.1,0,4.8,0C3.1,0,1.5,0.3,0,0.9
					C1.1,2.7,2.4,5,4,8C4.4,8.9,4.9,9.8,5.4,10.7"/>
			</g>
			<path id="Path_102" class="st3" d="M213.9,85.3h-42.4v42.4h42.4L213.9,85.3z M176.3,107.9c0-4.7,2-9.2,5.6-12.4
				c0.5-0.4,1-0.8,1.5-1.2c-0.4-0.5-0.9-0.9-1.4-1.2c-1.6-0.9-3.4-1.4-5.3-1.4v-3.1c2.4,0,4.9,0.7,7,1.9c1,0.6,1.8,1.4,2.5,2.3
				c2.1-0.9,4.3-1.4,6.6-1.4c9.1,0,16.5,7.4,16.5,16.5v13.7l-1.3,0.2c-0.9,0.1-8.7,0.9-17.3-15.1c-0.5-1-1-1.9-1.5-2.7
				c-1.6-3.1-2.9-5.4-4-7.1c-0.5,0.3-0.9,0.7-1.3,1c-2.9,2.5-4.5,6.2-4.5,10c0,7.4,6,13.4,13.4,13.4v3.1
				C183.7,124.4,176.3,117,176.3,107.9"/>
			<g id="Group_89" transform="translate(188.003 306.402)">
				<path id="Path_103" class="st6" d="M5.4,10.7C10.9,21,15.8,23.5,18.1,24V13.4C18.1,6,12.1,0,4.8,0C3.1,0,1.5,0.3,0,0.9
					C1.1,2.7,2.4,5,4,8C4.4,8.9,4.9,9.8,5.4,10.7"/>
			</g>
			<path id="Path_104" class="st6" d="M213.9,297.2h-42.4v42.4h42.4L213.9,297.2z M176.3,319.8c0-4.7,2-9.2,5.6-12.4
				c0.5-0.4,1-0.8,1.5-1.2c-0.4-0.5-0.9-0.9-1.4-1.2c-1.6-0.9-3.4-1.4-5.3-1.4v-3.1c2.4,0,4.9,0.7,7,1.9c1,0.6,1.8,1.4,2.5,2.3
				c2.1-0.9,4.3-1.4,6.6-1.4c9.1,0,16.5,7.4,16.5,16.5v13.7l-1.3,0.2c-0.9,0.1-8.7,0.9-17.3-15.1c-0.5-1-1-1.9-1.5-2.7
				c-1.6-3.1-2.9-5.4-4-7.1c-0.5,0.3-0.9,0.7-1.3,1c-2.9,2.5-4.5,6.2-4.5,10c0,7.4,6,13.4,13.4,13.4v3.1
				C183.7,336.3,176.3,328.9,176.3,319.8"/>
		</g>
	</g>
</g>
</svg>
