<?xml version="1.0" encoding="utf-8"?>
<!-- Generator: Adobe Illustrator 27.3.1, SVG Export Plug-In . SVG Version: 6.00 Build 0)  -->
<svg version="1.1" id="Layer_1" xmlns="http://www.w3.org/2000/svg" xmlns:xlink="http://www.w3.org/1999/xlink" x="0px" y="0px"
	 viewBox="0 0 570.2 222" style="enable-background:new 0 0 570.2 222;" xml:space="preserve">
<style type="text/css">
	.st0{fill:#C69B6D;}
	.st1{clip-path:url(#SVGID_00000128474896098537216900000016387087864709744814_);}
	.st2{fill:#FFFFFF;}
	.st3{fill:#543328;}
	.st4{clip-path:url(#SVGID_00000123406238733980880860000001125064667595815597_);}
	.st5{fill:#333333;}
	.st6{clip-path:url(#SVGID_00000007412014569980339420000008533873749257572536_);}
	.st7{fill:#CCAA87;}
	.st8{clip-path:url(#SVGID_00000065039120230351906520000002247455926267684534_);}
</style>
<g id="Group_102" transform="translate(0 0.326)">
	<path id="Path_107" class="st0" d="M0,221.6h276.5V0H0V221.6z"/>
	<g>
		<defs>
			<rect id="SVGID_1_" y="0" width="276.5" height="221.6"/>
		</defs>
		<clipPath id="SVGID_00000156547428148736530680000014620757896422749593_">
			<use xlink:href="#SVGID_1_"  style="overflow:visible;"/>
		</clipPath>
		
			<g id="Group_98" transform="translate(0 0)" style="clip-path:url(#SVGID_00000156547428148736530680000014620757896422749593_);">
			<g id="Group_95" transform="translate(149.738 68.982)">
				<path id="Path_108" class="st2" d="M3,0L3,0c1.6,0,3,1.3,3,3c0,1.6-1.3,3-3,3c-1.6,0-3-1.3-3-3C0,1.3,1.3,0,3,0C3,0,3,0,3,0"/>
			</g>
			<g id="Group_96" transform="translate(75.598 88.373)">
				<path id="Path_109" class="st2" d="M26.3,52.6L26.3,52.6C11.8,52.6,0,40.8,0,26.3C0,11.8,11.8,0,26.3,0h26.3v26.3
					C52.6,40.8,40.8,52.6,26.3,52.6"/>
			</g>
			<g id="Group_97" transform="translate(161.667 81.558)">
				<path id="Path_110" class="st3" d="M22.7,0C16.8-0.1,11.1,2.2,6.9,6.4C2.5,10.6,0,16.5,0,22.6v29.9h5V22.6c0-4.8,2-9.4,5.4-12.7
					c3.2-3.2,7.7-5,12.2-4.9c9.4,0.2,16.8,7.9,16.9,17.2v30.3h5V22.2C44.4,10.2,34.7,0.3,22.7,0"/>
			</g>
		</g>
	</g>
	<path id="Path_112" class="st3" d="M150.1,134h5V81.4h-5V134z"/>
	<g>
		<defs>
			<rect id="SVGID_00000151518472891427327020000006913195876957117884_" y="0" width="276.5" height="221.6"/>
		</defs>
		<clipPath id="SVGID_00000011716967385750782100000005187413018185173663_">
			<use xlink:href="#SVGID_00000151518472891427327020000006913195876957117884_"  style="overflow:visible;"/>
		</clipPath>
		
			<g id="Group_101" transform="translate(0 0)" style="clip-path:url(#SVGID_00000011716967385750782100000005187413018185173663_);">
			<g id="Group_99" transform="translate(131.8 69.111)">
				<path id="Path_113" class="st3" d="M5,52.1V0H0v52.1c0,7,5.7,12.7,12.7,12.7v-5C8.4,59.8,5,56.3,5,52.1"/>
			</g>
			<g id="Group_100" transform="translate(64.1 81.482)">
				<path id="Path_114" class="st3" d="M30.8,47.6c-6.1,0-11.9-2.6-16-7.2l-0.1-0.1c-0.6-0.6-1.2-1.3-1.6-2.1
					c2.5-1.5,5.8-3.3,10-5.5c1.8-0.9,3.7-2,5.8-3.1C54.4,15.9,53,3.5,53,2.1l0-2.1H30.8C16.3,0,4.6,11.7,4.5,26.2
					c-0.1,3.6,0.6,7.2,2,10.5C1.8,40.5,0,44.6,0,52.3h5c0-5.5,0.8-8.4,4-11.2c0.6,0.9,1.3,1.8,2.1,2.6c5,5.6,12.1,8.8,19.6,8.8
					c14.5,0,26.3-11.8,26.3-26.3h-5C52.1,38,42.5,47.5,30.8,47.6 M10.7,33.8c-0.9-2.4-1.4-4.9-1.3-7.4v-0.1C9.5,14.5,19,5,30.8,5h17
					C46.9,8.6,43,16.4,26.5,25.2c-2.1,1.1-4,2.1-5.8,3.1C16.8,30.4,13.5,32.2,10.7,33.8"/>
			</g>
		</g>
	</g>
</g>
<g id="Group_111" transform="translate(293.314)">
	<path id="Path_116" class="st2" d="M0.2,221.8h276.5V0.2H0.2V221.8z"/>
	<g id="Group_103" transform="translate(0 0)">
		<path id="Path_117" class="st5" d="M0,0v222h276.9v-0.2h-0.2l0,0h0.2V0H0z M0.3,0.3h276.2v221.3H0.3V0.3z"/>
	</g>
	<g>
		<defs>
			<rect id="SVGID_00000024723781218351789430000010325129982112464553_" x="0" width="276.9" height="222"/>
		</defs>
		<clipPath id="SVGID_00000121992464943885091260000012691196256346059451_">
			<use xlink:href="#SVGID_00000024723781218351789430000010325129982112464553_"  style="overflow:visible;"/>
		</clipPath>
		
			<g id="Group_107" transform="translate(0 0)" style="clip-path:url(#SVGID_00000121992464943885091260000012691196256346059451_);">
			<g id="Group_104" transform="translate(149.902 69.146)">
				<path id="Path_118" class="st7" d="M3,0C1.3,0,0,1.3,0,3s1.3,3,3,3l0,0c1.6,0,3-1.3,3-3S4.6,0,3,0"/>
			</g>
			<g id="Group_105" transform="translate(75.761 88.537)">
				<path id="Path_119" class="st7" d="M52.6,0H26.3C11.8,0,0,11.8,0,26.3c0,14.5,11.8,26.3,26.3,26.3c14.5,0,26.3-11.8,26.3-26.3V0
					z"/>
			</g>
			<g id="Group_106" transform="translate(161.83 81.721)">
				<path id="Path_120" class="st3" d="M22.7,0C16.8-0.1,11.1,2.2,6.9,6.4C2.5,10.6,0,16.5,0,22.6v29.9h5V22.6c0-4.8,2-9.4,5.4-12.7
					c3.2-3.2,7.7-5,12.2-4.9c9.4,0.2,16.8,7.9,16.9,17.2v30.3h5V22.2C44.4,10.2,34.7,0.3,22.7,0"/>
			</g>
		</g>
	</g>
	<path id="Path_122" class="st3" d="M150.3,134.2h5V81.6h-5V134.2z"/>
	<g>
		<defs>
			<rect id="SVGID_00000001636267510891848310000009261066768861878696_" x="0" width="276.9" height="222"/>
		</defs>
		<clipPath id="SVGID_00000116222373383444049070000004188435398068545449_">
			<use xlink:href="#SVGID_00000001636267510891848310000009261066768861878696_"  style="overflow:visible;"/>
		</clipPath>
		
			<g id="Group_110" transform="translate(0 0)" style="clip-path:url(#SVGID_00000116222373383444049070000004188435398068545449_);">
			<g id="Group_108" transform="translate(131.963 69.275)">
				<path id="Path_123" class="st3" d="M5,52.1V0H0v52.1c0,7,5.7,12.7,12.7,12.7v-5C8.4,59.8,5,56.3,5,52.1"/>
			</g>
			<g id="Group_109" transform="translate(64.263 81.646)">
				<path id="Path_124" class="st3" d="M30.8,47.6c-6.1,0-11.9-2.6-16-7.2l-0.1-0.1c-0.6-0.6-1.1-1.3-1.6-2.1
					c2.5-1.5,5.8-3.3,10-5.5c1.8-0.9,3.7-2,5.8-3.1C54.4,15.9,53,3.5,53,2.1l0-2.1H30.8C16.3,0,4.6,11.7,4.5,26.2
					c-0.1,3.6,0.6,7.2,2,10.5C1.8,40.5,0,44.6,0,52.3h5c0-5.5,0.8-8.4,4-11.2c0.6,0.9,1.3,1.8,2.1,2.6c5,5.6,12.1,8.8,19.6,8.8
					c14.5,0,26.3-11.8,26.3-26.3h-5C52.1,38,42.5,47.5,30.8,47.6 M10.7,33.8c-0.9-2.4-1.4-4.9-1.3-7.4v-0.1C9.5,14.5,19,5,30.8,5h17
					C46.9,8.6,43,16.4,26.5,25.2c-2.1,1.1-4,2.1-5.8,3.1C16.8,30.4,13.5,32.2,10.7,33.8"/>
			</g>
		</g>
	</g>
</g>
</svg>
