<?xml version="1.0" encoding="utf-8"?>
<!-- Generator: Adobe Illustrator 27.3.1, SVG Export Plug-In . SVG Version: 6.00 Build 0)  -->
<svg version="1.1" id="Layer_1" xmlns="http://www.w3.org/2000/svg" xmlns:xlink="http://www.w3.org/1999/xlink" x="0px" y="0px"
	 viewBox="0 0 565 466.3" style="enable-background:new 0 0 565 466.3;" xml:space="preserve">
<style type="text/css">
	.st0{fill:none;stroke:#523028;stroke-width:1.202;}
	.st1{fill:#523028;}
	.st2{font-family:'Poppins-Medium';}
	.st3{font-size:26px;}
	.st4{clip-path:url(#SVGID_00000130647295583936598710000016737836723676690843_);}
	.st5{fill:#D2AB81;}
	.st6{fill:#512F27;}
	.st7{clip-path:url(#SVGID_00000169555562277698649650000015465231955970674623_);}
	.st8{fill:#B0B9B8;}
</style>
<g id="Group_130" transform="translate(0 308.834)">
	<g id="Group_120" transform="translate(281.593 -258.465)">
		<path id="Path_135" class="st0" d="M0,42.4V0"/>
	</g>
	<text transform="matrix(1 0 0 1 183.183 -271.788)" class="st1 st2 st3">50% of leter n</text>
	<g>
		<defs>
			<rect id="SVGID_1_" y="-308.8" width="565" height="466.3"/>
		</defs>
		<clipPath id="SVGID_00000132791083916343545490000002943085775426655879_">
			<use xlink:href="#SVGID_1_"  style="overflow:visible;"/>
		</clipPath>
		
			<g id="Group_124" transform="translate(0 -308.834)" style="clip-path:url(#SVGID_00000132791083916343545490000002943085775426655879_);">
			<g id="Group_121" transform="translate(325.167 181.964)">
				<path id="Path_136" class="st5" d="M8.6,0C3.9,0,0,3.9,0,8.6s3.9,8.6,8.6,8.6s8.6-3.9,8.6-8.6S13.4,0,8.6,0C8.6,0,8.6,0,8.6,0"
					/>
			</g>
			<g id="Group_122" transform="translate(109.795 238.293)">
				<path id="Path_137" class="st5" d="M152.9,0H76.4C34.2,0,0,34.2,0,76.4c0,42.2,34.2,76.4,76.4,76.4c0,0,0,0,0,0l0,0
					c42.2,0,76.4-34.2,76.4-76.4c0,0,0,0,0,0V0z"/>
			</g>
			<g id="Group_123" transform="translate(359.817 218.495)">
				<path id="Path_138" class="st6" d="M65.9,0C48.7-0.3,32.1,6.3,19.9,18.5C7.2,30.9,0.1,48,0,65.7v86.7h14.5V65.7
					c0.1-13.9,5.7-27.2,15.6-37c9.4-9.4,22.2-14.6,35.5-14.3c27.2,0.7,48.9,22.9,49.1,50.1v87.9h14.5V64.6
					C129.1,29.7,100.7,0.7,65.9,0"/>
			</g>
		</g>
	</g>
	<path id="Path_140" class="st6" d="M326.3,62.1h14.5V-90.8h-14.5V62.1z"/>
	<g>
		<defs>
			<rect id="SVGID_00000178185154982761536790000009728905515053990546_" x="0" y="-308.8" width="565" height="466.3"/>
		</defs>
		<clipPath id="SVGID_00000031173573576273339230000002966948488089816448_">
			<use xlink:href="#SVGID_00000178185154982761536790000009728905515053990546_"  style="overflow:visible;"/>
		</clipPath>
		
			<g id="Group_127" transform="translate(0 -308.834)" style="clip-path:url(#SVGID_00000031173573576273339230000002966948488089816448_);">
			<g id="Group_125" transform="translate(273.057 182.34)">
				<path id="Path_141" class="st6" d="M14.5,151.2V0H0v151.2c0,20.4,16.6,36.9,36.9,36.9v-14.5C24.5,173.7,14.5,163.6,14.5,151.2"
					/>
			</g>
			<g id="Group_126" transform="translate(76.391 218.276)">
				<path id="Path_142" class="st6" d="M89.4,138.1c-17.7,0-34.6-7.6-46.3-20.9l-0.3-0.3c-1.7-1.9-3.3-3.9-4.8-6
					c7.3-4.5,16.8-9.5,29-15.9c5.2-2.7,10.8-5.7,16.9-9c74.2-39.8,69.9-75.8,69.9-80L153.7,0H89.4C47.4,0,13.3,34.1,13.1,76.1
					C12.7,86.6,14.7,97,19,106.6c-13.7,11-19,22.9-19,45.4h14.5c0-15.9,2.4-24.4,11.7-32.6c1.8,2.7,3.9,5.3,6.1,7.6
					c14.5,16.3,35.3,25.6,57.1,25.6c42.1,0,76.3-34.2,76.3-76.3h-14.5C151.2,110.4,123.6,138.1,89.4,138.1 M31.2,98.2
					c-2.7-6.8-4-14.2-3.6-21.5l0-0.4c0-34.1,27.7-61.8,61.8-61.8h49.4c-2.6,10.4-13.9,33.1-61.8,58.8c-6.1,3.3-11.7,6.2-16.8,8.9
					C48.7,88.3,39.1,93.4,31.2,98.2"/>
			</g>
		</g>
	</g>
	<g id="Group_128" transform="translate(76.126 -127.735)">
		<path id="Path_144" class="st6" d="M411.1,208.8v-0.5H0.9V0.9h409.6v207.8L411.1,208.8L411.1,208.8l0.5,0V0H0v209.3h411.5v-0.5
			H411.1z"/>
	</g>
	<g id="Group_129" transform="translate(0 -203.02)">
		<path id="Path_145" class="st6" d="M0,0v360.5h565v-0.5h-0.5l0,0h0.5V0H0z M0.9,1.1h563.1v358.4H0.9V1.1z"/>
	</g>
	<path id="Path_146" class="st8" d="M564.5,5.3h-76.3v-56.1h76.3V5.3z"/>
	<path id="Path_147" class="st8" d="M0.3,5.3h76.3v-56.1H0.3V5.3z"/>
	<path id="Path_148" class="st8" d="M308.7-126.7h-56.1V-203h56.1V-126.7z"/>
	<path id="Path_149" class="st8" d="M252.6,157.5h56.1V81.1h-56.1V157.5z"/>
</g>
</svg>
