<?xml version="1.0" encoding="utf-8"?>
<!-- Generator: Adobe Illustrator 27.0.1, SVG Export Plug-In . SVG Version: 6.00 Build 0)  -->
<svg version="1.1" id="Layer_1" xmlns="http://www.w3.org/2000/svg" xmlns:xlink="http://www.w3.org/1999/xlink" x="0px" y="0px"
	 viewBox="0 0 501.4 446" style="enable-background:new 0 0 501.4 446;" xml:space="preserve">
<style type="text/css">
	.st0{fill:#001E36;}
	.st1{fill:#31A8FF;}
	.st2{fill:#330000;}
	.st3{fill:#FF9A00;}
	.st4{fill:#00005B;}
	.st5{fill:#9999FF;}
	.st6{fill:#470137;}
	.st7{fill:#E955DF;}
	.st8{fill:#E44D26;}
	.st9{fill:#F16529;}
	.st10{fill:#EBEBEB;}
	.st11{fill:#FFFFFF;}
	.st12{fill:#264DE4;}
	.st13{fill:#2965F1;}
	.st14{fill:#CD6799;}
	.st15{fill:#41B883;}
	.st16{fill:#35495E;}
	.st17{fill:#004A94;}
	.st18{fill:#D1D3D3;}
	.st19{fill:#A4A9AD;}
	.st20{fill:#38A3FF;}
	.st21{filter:url(#Adobe_OpacityMaskFilter);}
	.st22{mask:url(#mask-2_00000044180288514272229050000006607310610933847981_);fill:#0065A9;}
	.st23{filter:url(#Adobe_OpacityMaskFilter_00000096762515962799871000000016801797784012693148_);}
	.st24{mask:url(#mask-2_00000098901486072634003000000002414451449077638534_);fill:#007ACC;}
	.st25{filter:url(#Adobe_OpacityMaskFilter_00000128475763322475592540000008658553257593763238_);}
	.st26{mask:url(#mask-2_00000036216570593020959010000001676078219636950938_);fill:#1F9CF0;}
	.st27{filter:url(#Adobe_OpacityMaskFilter_00000132089872831907210980000012617352206937040275_);}
	.st28{mask:url(#mask-2_00000004510802639037823920000005250510150156457381_);fill:url(#SVGID_1_);fill-opacity:0.25;}
</style>
<g>
	<path class="st0" d="M59.4,323.1H11.2c-6.2,0-11.2-5-11.2-11.2v-48.2c0-6.2,5-11.2,11.2-11.2h48.2c6.2,0,11.2,5,11.2,11.2v48.2
		C70.6,318.1,65.6,323.1,59.4,323.1z"/>
	<g>
		<g>
			<path class="st1" d="M13.1,272.1c2.3-0.4,5.6-0.7,10.2-0.7c4.6,0,8,0.9,10.2,2.7c2.1,1.7,3.6,4.4,3.6,7.7c0,3.3-1.1,6-3.1,7.9
				c-2.6,2.4-6.4,3.5-10.8,3.5c-1,0-1.9,0-2.6-0.1V305h-7.5V272.1z M20.6,287.3c0.6,0.1,1.4,0.2,2.5,0.2c4,0,6.5-2,6.5-5.4
				c0-3.1-2.1-4.9-5.9-4.9c-1.5,0-2.6,0.1-3.1,0.3V287.3z"/>
			<path class="st1" d="M40.5,298.4c1.4,0.8,4.2,1.8,6.5,1.8c2.3,0,3.2-0.8,3.2-2c0-1.2-0.7-1.8-3.6-2.8c-5-1.7-6.9-4.4-6.9-7.3
				c0-4.5,3.9-7.9,9.8-7.9c2.8,0,5.3,0.6,6.8,1.4l-1.3,5.2c-1.1-0.6-3.2-1.4-5.2-1.4c-1.8,0-2.9,0.7-2.9,2c0,1.1,0.9,1.7,3.9,2.8
				c4.6,1.6,6.5,3.9,6.6,7.5c0,4.5-3.6,7.8-10.5,7.8c-3.2,0-6-0.7-7.8-1.7L40.5,298.4z"/>
		</g>
	</g>
</g>
<g>
	<path class="st2" d="M490.7,259.3H442c-6.3,0-11.3-5.1-11.3-11.3v-48.7c0-6.3,5.1-11.3,11.3-11.3h48.7c6.3,0,11.3,5.1,11.3,11.3
		V248C502,254.3,496.9,259.3,490.7,259.3z"/>
	<g>
		<g>
			<path class="st3" d="M455.4,232.3L453,241h-7.9l10.3-33.7h10l10.4,33.7h-8.2l-2.6-8.6H455.4z M463.9,226.6l-2.1-7.1
				c-0.6-2-1.2-4.5-1.7-6.5H460c-0.5,2-1,4.5-1.5,6.5l-2,7.1H463.9z"/>
			<path class="st3" d="M487.6,209.8c0,2.1-1.6,3.8-4.1,3.8c-2.4,0-4-1.7-3.9-3.8c0-2.2,1.5-3.8,4-3.8
				C486,205.9,487.5,207.6,487.6,209.8z M479.7,241v-24.4h7.6V241H479.7z"/>
		</g>
	</g>
</g>
<g>
	<path class="st4" d="M358.8,411.6h-34.1c-4.4,0-7.9-3.6-7.9-7.9v-34.1c0-4.4,3.6-7.9,7.9-7.9h34.1c4.4,0,7.9,3.6,7.9,7.9v34.1
		C366.8,408,363.2,411.6,358.8,411.6z"/>
	<g>
		<g>
			<path class="st5" d="M331.1,391.8l-1.4,5.2h-4.7l6.2-20.2h6l6.3,20.2h-4.9l-1.6-5.2H331.1z M336.2,388.4l-1.3-4.3
				c-0.4-1.2-0.7-2.7-1-3.9h-0.1c-0.3,1.2-0.6,2.7-0.9,3.9l-1.2,4.3H336.2z"/>
			<path class="st5" d="M349,391.1c0.1,1.9,2,2.8,4.1,2.8c1.6,0,2.8-0.2,4-0.6l0.6,3.1c-1.5,0.6-3.3,0.9-5.3,0.9
				c-5,0-7.8-2.9-7.8-7.5c0-3.7,2.3-7.8,7.4-7.8c4.7,0,6.5,3.7,6.5,7.3c0,0.8-0.1,1.5-0.1,1.8H349z M354.4,388c0-1.1-0.5-3-2.6-3
				c-1.9,0-2.7,1.7-2.8,3H354.4z"/>
		</g>
	</g>
</g>
<g>
	<path class="st6" d="M86.8,107.9l-27.2,0c-3.5,0-6.3-2.8-6.3-6.3l0-27.2c0-3.5,2.8-6.3,6.3-6.3l27.2,0c3.5,0,6.3,2.8,6.3,6.3
		l0,27.2C93.2,105,90.3,107.9,86.8,107.9z"/>
	<g>
		<g>
			<path class="st7" d="M69.6,96.2l-1.5-2.9c-0.6-1.1-1-2-1.4-2.9h0c-0.3,0.9-0.7,1.8-1.2,2.9l-1.3,2.9l-4.2,0l4.7-8.2l-4.5-8h4.2
				l1.4,2.9c0.5,1,0.8,1.8,1.2,2.7h0c0.4-1,0.7-1.7,1.1-2.7l1.4-2.9h4.2L69,88l4.8,8.2H69.6z"/>
			<path class="st7" d="M86.5,79.3l0,13.5c0,1.3,0,2.7,0.1,3.5h-3.2l-0.2-1.7h0c-0.7,1.3-2.2,2-3.7,2c-2.8,0-5-2.4-5-6
				c0-3.9,2.4-6.2,5.2-6.2c1.4,0,2.6,0.5,3.1,1.3h0l0-6.3L86.5,79.3z M82.9,89.5c0-0.2,0-0.5,0-0.6c-0.2-1-1-1.8-2.1-1.8
				c-1.6,0-2.5,1.5-2.5,3.3c0,2,1,3.2,2.5,3.2c1.1,0,1.9-0.7,2.1-1.7c0.1-0.3,0.1-0.5,0.1-0.8L82.9,89.5z"/>
		</g>
	</g>
</g>
<path class="st8" d="M402.2,136.1l-5.4-60.9h59.6l-5.4,60.8l-24.4,6.8"/>
<path class="st9" d="M426.6,137.7V80.3H451l-4.7,51.9"/>
<path class="st10" d="M407.9,87.7h18.7v7.5H416l0.7,7.6h9.9v7.4h-16.7 M410.2,114h7.5l0.5,6l8.3,2.2v7.8l-15.3-4.3"/>
<path class="st11" d="M445.3,87.7h-18.7v7.5h18 M443.9,102.8h-17.3v7.5h9.2l-0.9,9.7l-8.3,2.2v7.8l15.3-4.2"/>
<g>
	<path class="st12" d="M455.5,151.5l-24.2-6.7l-5.4-60.6h59.4l-5.4,60.6L455.5,151.5L455.5,151.5z"/>
	<path class="st13" d="M475.2,140.9l4.6-51.8h-24.3v57.2L475.2,140.9L475.2,140.9z"/>
	<path class="st10" d="M438.3,111.6l0.7,7.4h16.6v-7.4H438.3z M436.9,96.6l0.7,7.4h18v-7.4C455.6,96.6,436.9,96.6,436.9,96.6z
		 M455.6,130.9L455.6,130.9l-8.3-2.2l-0.5-5.9h-7.5l1,11.7l15.2,4.2l0,0V130.9z"/>
	<path class="st11" d="M472.8,111.6l1.3-15h-18.6v7.4H466l-0.7,7.6h-9.8v7.4h9.2l-0.9,9.6l-8.3,2.2v7.7l15.2-4.2l0.1-1.3l1.7-19.6
		L472.8,111.6L472.8,111.6z"/>
</g>
<path class="st14" d="M250,363.6c-1.8,0-3.6,0.4-5.2,1.2c-0.5-0.8-0.9-1.7-1.2-2.7c-0.2-0.7-0.2-1.5-0.1-2.2
	c0.2-0.8,0.4-1.6,0.7-2.4c0-0.1-0.1-0.6-1.3-0.6c-1.1,0-2.1,0.2-2.2,0.5c-0.2,0.6-0.4,1.1-0.5,1.7c-1,2.3-2.1,4.6-3.5,6.7
	c-0.8-1.3-1.1-2.8-0.9-4.2c0.2-0.8,0.4-1.6,0.7-2.4c0-0.1-0.1-0.6-1.3-0.6c-1.1,0-2.1,0.2-2.2,0.5s-0.2,1-0.5,1.7
	c-0.2,0.7-3,6.9-3.8,8.5c-0.4,0.8-0.7,1.5-0.9,1.9l0,0c0,0,0,0.1,0,0.1c-0.2,0.4-0.3,0.6-0.3,0.6v0c-0.2,0.3-0.3,0.5-0.4,0.5
	c-0.1-0.6-0.1-1.2,0-1.8c0.4-2.2,1.4-5.5,1.4-5.6c0-0.1,0.2-0.6-0.6-0.9c-0.4-0.2-0.9-0.1-1.2,0.2c-0.1,0-0.1,0.2-0.1,0.2
	s0.9-3.8-1.7-3.8c-2.1,0.4-3.9,1.7-5.1,3.4c-0.7,0.4-2.2,1.2-3.8,2.1c-0.6,0.3-1.3,0.7-1.8,1c0,0-0.1-0.1-0.1-0.1
	c-3.2-3.4-9.1-5.8-8.9-10.4c0.1-1.7,0.7-6.1,11.3-11.4c8.8-4.3,15.8-3.1,17-0.5c1.7,3.8-3.7,10.9-12.8,11.9c-2,0.4-4.1-0.1-5.7-1.5
	c-0.5-0.5-0.6-0.6-0.7-0.4c-0.3,0.2-0.1,0.6,0,0.9c0.7,1.3,1.9,2.2,3.3,2.6c3.6,0.8,7.3,0.4,10.7-1.1c5.5-2.1,9.8-8.1,8.5-13
	c-1.3-5-9.6-6.7-17.5-3.9c-5,1.7-9.5,4.3-13.5,7.7c-4.4,4.1-5,7.6-4.8,9.1c1,5.3,8.3,8.7,11.2,11.2c-0.1,0.1-0.3,0.2-0.4,0.2
	c-1.5,0.7-7,3.6-8.4,6.7c-1.6,3.5,0.3,6,1.5,6.3c3.7,0.9,7.6-0.7,9.6-3.9c1.7-2.6,2-6,0.9-8.9c0,0,0,0,0-0.1l1.1-0.7
	c0.7-0.4,1.5-0.8,2.1-1.2c-0.4,1.2-0.7,2.5-0.7,3.8c-0.1,2,0.5,4,1.7,5.5c0.4,0.3,0.9,0.5,1.4,0.4c1.2,0,1.8-1,2.4-2.2
	c0.8-1.5,1.4-3.2,1.4-3.2s-0.8,4.7,1.5,4.7c0.8,0,1.7-1.1,2.1-1.6v0c0,0,0,0,0.1-0.1l0.1-0.2v0c0.3-0.6,1.1-1.9,2.2-4.1
	c1.4-2.8,2.8-6.4,2.8-6.4c0.1,0.8,0.3,1.6,0.6,2.3c0.3,0.9,0.7,1.8,1.2,2.7c-0.3,0.5-0.5,0.7-0.5,0.7l0,0c-0.3,0.4-0.6,0.7-0.9,1.1
	c-1,1.1-1.9,2.2-2.7,3.4c-0.3,0.4-0.1,0.9,0.3,1.2c0.4,0.2,0.9,0.3,1.4,0.2c0.7,0,1.4-0.2,2.1-0.5c0.6-0.2,1.3-0.5,1.8-0.9
	c1.2-0.8,1.8-2.2,1.7-3.6c-0.1-0.9-0.3-1.7-0.7-2.5c0.1-0.1,0.2-0.3,0.3-0.4c1.2-1.7,2.2-3.5,3.1-5.4c0.1,0.8,0.3,1.6,0.6,2.3
	c0.3,0.8,0.6,1.6,1,2.3c-1.3,1-2.4,2.4-3.1,3.9c-0.7,1.9-0.1,2.8,0.8,3c0.5,0,1.1-0.1,1.5-0.3c0.7-0.2,1.3-0.6,1.9-1
	c1.3-0.7,2.1-2.1,2.1-3.5c0-0.7-0.2-1.4-0.5-2.1c1.8-0.7,3.7-0.9,5.5-0.6c5,0.6,6,3.7,5.8,5c-0.2,0.9-0.8,1.8-1.6,2.2
	c-0.3,0.2-0.5,0.3-0.4,0.4c0,0.2,0.2,0.2,0.5,0.2c1.5-0.5,2.6-1.8,2.7-3.5C258.1,366.9,255.2,363.5,250,363.6L250,363.6z
	 M211.7,376.5c-1.6,1.8-3.9,2.5-4.9,1.9c-1.1-0.6-0.6-3.3,1.4-5.2c1.2-1.1,2.5-2,3.9-2.9c0.2-0.1,0.6-0.4,1-0.6l0.1-0.1l0,0l0.3-0.2
	C214.1,372,213.5,374.6,211.7,376.5z M223.7,368.3c-0.6,1.4-1.8,5-2.5,4.8c-0.6-0.2-1-2.9-0.1-5.6c0.5-1.3,1.1-2.5,2-3.6
	c0.9-1,1.9-1.3,2.1-0.9C224.9,364.9,224.4,366.6,223.7,368.3z M233.6,373.1c-0.2,0.1-0.5,0.2-0.6,0.1c-0.1,0,0.1-0.2,0.1-0.2
	s1.2-1.3,1.7-1.9c0.3-0.4,0.6-0.8,1-1.2v0.1C235.8,371.5,234.3,372.6,233.6,373.1L233.6,373.1z M241.2,371.3
	c-0.2-0.1-0.1-0.5,0.4-1.8c0.4-0.8,1-1.6,1.7-2.2c0.1,0.3,0.2,0.6,0.2,1C243.6,369.7,242.6,370.9,241.2,371.3L241.2,371.3z"/>
<g>
	<path class="st15" d="M59,173h9l-22.6,39l-22.6-39h8.9h8.4l5.3,9l5.2-9H59z"/>
	<path class="st15" d="M22.9,173l22.6,39l22.6-39h-9l-13.5,23.4L31.8,173H22.9z"/>
	<path class="st16" d="M31.8,173l13.7,23.5L59,173h-8.4l-5.2,9l-5.3-9H31.8z"/>
</g>
<g>
	<g>
		<circle class="st17" cx="424.5" cy="318.6" r="22.3"/>
		<path class="st18" d="M434.7,326.3c-2.3,2.3-5.4,3.7-8.9,3.7c-7,0-12.6-5.7-12.6-12.6c0-4.7,2.5-8.7,6.3-10.9l-14,0.5
			c-2,3.4-3.2,7.3-3.2,11.5c0,12.3,10,22.3,22.3,22.3c6.5,0,12.3-2.8,16.3-7.1L434.7,326.3z"/>
		<path class="st19" d="M446.9,321.2c0-3-2.4-5.4-5.4-5.4c-1.1,0-2.1,0.3-3,0.9l0,0c0,0,0,0,0,0c0,0-0.1,0-0.1,0.1
			c-3.6,2.4-6.2,10.7-9.7,13.8l0,0c-2.2,2-5,3.2-8.2,3.2c-6.7,0-12.1-5.4-12.1-12.1c0-6.7,5.4-12.1,12.1-12.1c1.3,0,5.2,1,8.4,0.4
			c0.7-0.1,1.4-0.4,2-0.7c0,0,0,0,0,0c0,0,0,0,0.1,0c2.1-1.2,3.5-3.4,3.5-5.9c0-3.2-2.2-5.8-5.1-6.6c-1.6-0.3-3.2-0.5-4.9-0.5
			c-3.3,0-6.3,0.7-9.1,1.9l-2.3,1.2c-6.6,3.9-11.1,11.1-11.1,19.4c0,12.5,10.1,22.5,22.5,22.5c11.4,0,20.9-8.5,22.3-19.6l0,0
			C446.8,321.4,446.9,321.3,446.9,321.2z"/>
		<circle class="st20" cx="422" cy="317.6" r="4.4"/>
	</g>
</g>
<g>
	<defs>
		<filter id="Adobe_OpacityMaskFilter" filterUnits="userSpaceOnUse" x="70.3" y="342.9" width="75.6" height="57.1">
			<feColorMatrix  type="matrix" values="1 0 0 0 0  0 1 0 0 0  0 0 1 0 0  0 0 0 1 0"/>
		</filter>
	</defs>
	
		<mask maskUnits="userSpaceOnUse" x="70.3" y="342.9" width="75.6" height="57.1" id="mask-2_00000044180288514272229050000006607310610933847981_">
		<g class="st21">
			<path id="path-1_00000173846116463317108000000000968102585868605841_" class="st11" d="M123.9,417.8c1.2,0.5,2.5,0.4,3.8-0.1
				l15.6-7.5c1.6-0.8,2.7-2.4,2.7-4.3v-50.8c0-1.8-1-3.5-2.7-4.3l-15.6-7.5c-1.6-0.8-3.4-0.6-4.8,0.4c-0.2,0.1-0.4,0.3-0.6,0.5
				l-29.8,27.2l-13-9.9c-1.2-0.9-2.9-0.8-4,0.2l-4.2,3.8c-1.4,1.2-1.4,3.4,0,4.7l11.3,10.3l-11.3,10.3c-1.4,1.3-1.4,3.4,0,4.7
				l4.2,3.8c1.1,1,2.8,1.1,4,0.2l13-9.9l29.8,27.2C122.7,417.2,123.3,417.5,123.9,417.8z M127,363.3l-22.6,17.2l22.6,17.2V363.3z"/>
		</g>
	</mask>
	<path class="st22" d="M143.2,350.9l-15.6-7.5c-1.8-0.9-4-0.5-5.4,0.9l-51,46.5c-1.4,1.3-1.4,3.4,0,4.7l4.2,3.8c1.1,1,2.8,1.1,4,0.2
		l61.4-46.6c2.1-1.6,5-0.1,5,2.5v-0.2C145.9,353.3,144.9,351.6,143.2,350.9z"/>
	<defs>
		
			<filter id="Adobe_OpacityMaskFilter_00000083063131632588971290000014352832240563107981_" filterUnits="userSpaceOnUse" x="70.3" y="361" width="75.6" height="57.1">
			<feColorMatrix  type="matrix" values="1 0 0 0 0  0 1 0 0 0  0 0 1 0 0  0 0 0 1 0"/>
		</filter>
	</defs>
	
		<mask maskUnits="userSpaceOnUse" x="70.3" y="361" width="75.6" height="57.1" id="mask-2_00000098901486072634003000000002414451449077638534_">
		<g style="filter:url(#Adobe_OpacityMaskFilter_00000083063131632588971290000014352832240563107981_);">
			<path id="path-1_00000064321407653966663390000007057735963277346725_" class="st11" d="M123.9,417.8c1.2,0.5,2.5,0.4,3.8-0.1
				l15.6-7.5c1.6-0.8,2.7-2.4,2.7-4.3v-50.8c0-1.8-1-3.5-2.7-4.3l-15.6-7.5c-1.6-0.8-3.4-0.6-4.8,0.4c-0.2,0.1-0.4,0.3-0.6,0.5
				l-29.8,27.2l-13-9.9c-1.2-0.9-2.9-0.8-4,0.2l-4.2,3.8c-1.4,1.2-1.4,3.4,0,4.7l11.3,10.3l-11.3,10.3c-1.4,1.3-1.4,3.4,0,4.7
				l4.2,3.8c1.1,1,2.8,1.1,4,0.2l13-9.9l29.8,27.2C122.7,417.2,123.3,417.5,123.9,417.8z M127,363.3l-22.6,17.2l22.6,17.2V363.3z"/>
		</g>
	</mask>
	<path class="st24" d="M143.2,410.1l-15.6,7.5c-1.8,0.9-4,0.5-5.4-0.9l-51-46.5c-1.4-1.3-1.4-3.4,0-4.7l4.2-3.8c1.1-1,2.8-1.1,4-0.2
		l61.4,46.6c2.1,1.6,5,0.1,5-2.5v0.2C145.9,407.7,144.9,409.3,143.2,410.1z"/>
	<defs>
		
			<filter id="Adobe_OpacityMaskFilter_00000096744261346346261190000002906256661114644922_" filterUnits="userSpaceOnUse" x="122.2" y="342.9" width="23.6" height="75.2">
			<feColorMatrix  type="matrix" values="1 0 0 0 0  0 1 0 0 0  0 0 1 0 0  0 0 0 1 0"/>
		</filter>
	</defs>
	
		<mask maskUnits="userSpaceOnUse" x="122.2" y="342.9" width="23.6" height="75.2" id="mask-2_00000036216570593020959010000001676078219636950938_">
		<g style="filter:url(#Adobe_OpacityMaskFilter_00000096744261346346261190000002906256661114644922_);">
			<path id="path-1_00000041995246921420630950000004993401587482862502_" class="st11" d="M123.9,417.8c1.2,0.5,2.5,0.4,3.8-0.1
				l15.6-7.5c1.6-0.8,2.7-2.4,2.7-4.3v-50.8c0-1.8-1-3.5-2.7-4.3l-15.6-7.5c-1.6-0.8-3.4-0.6-4.8,0.4c-0.2,0.1-0.4,0.3-0.6,0.5
				l-29.8,27.2l-13-9.9c-1.2-0.9-2.9-0.8-4,0.2l-4.2,3.8c-1.4,1.2-1.4,3.4,0,4.7l11.3,10.3l-11.3,10.3c-1.4,1.3-1.4,3.4,0,4.7
				l4.2,3.8c1.1,1,2.8,1.1,4,0.2l13-9.9l29.8,27.2C122.7,417.2,123.3,417.5,123.9,417.8z M127,363.3l-22.6,17.2l22.6,17.2V363.3z"/>
		</g>
	</mask>
	<path class="st26" d="M127.6,417.6c-1.8,0.9-4,0.5-5.4-0.9c1.7,1.7,4.7,0.5,4.7-2v-68.5c0-2.5-3-3.7-4.7-2c1.4-1.4,3.6-1.8,5.4-0.9
		l15.6,7.5c1.6,0.8,2.7,2.4,2.7,4.3v50.8c0,1.8-1,3.5-2.7,4.3L127.6,417.6z"/>
	<defs>
		
			<filter id="Adobe_OpacityMaskFilter_00000072985931079009860850000008151968275430542743_" filterUnits="userSpaceOnUse" x="70.3" y="342.9" width="75.6" height="75.2">
			<feColorMatrix  type="matrix" values="1 0 0 0 0  0 1 0 0 0  0 0 1 0 0  0 0 0 1 0"/>
		</filter>
	</defs>
	
		<mask maskUnits="userSpaceOnUse" x="70.3" y="342.9" width="75.6" height="75.2" id="mask-2_00000004510802639037823920000005250510150156457381_">
		<g style="filter:url(#Adobe_OpacityMaskFilter_00000072985931079009860850000008151968275430542743_);">
			<path id="path-1_00000088133669000006136410000016512895726469300919_" class="st11" d="M123.9,417.8c1.2,0.5,2.5,0.4,3.8-0.1
				l15.6-7.5c1.6-0.8,2.7-2.4,2.7-4.3v-50.8c0-1.8-1-3.5-2.7-4.3l-15.6-7.5c-1.6-0.8-3.4-0.6-4.8,0.4c-0.2,0.1-0.4,0.3-0.6,0.5
				l-29.8,27.2l-13-9.9c-1.2-0.9-2.9-0.8-4,0.2l-4.2,3.8c-1.4,1.2-1.4,3.4,0,4.7l11.3,10.3l-11.3,10.3c-1.4,1.3-1.4,3.4,0,4.7
				l4.2,3.8c1.1,1,2.8,1.1,4,0.2l13-9.9l29.8,27.2C122.7,417.2,123.3,417.5,123.9,417.8z M127,363.3l-22.6,17.2l22.6,17.2V363.3z"/>
		</g>
	</mask>
	
		<linearGradient id="SVGID_1_" gradientUnits="userSpaceOnUse" x1="-704.7998" y1="761.4028" x2="-704.7998" y2="761.1063" gradientTransform="matrix(255.0041 0 0 -253.6892 179834.9219 193502.5625)">
		<stop  offset="0" style="stop-color:#FFFFFF"/>
		<stop  offset="1" style="stop-color:#FFFFFF;stop-opacity:0"/>
	</linearGradient>
	<path class="st28" d="M123.9,417.8c1.2,0.5,2.5,0.4,3.7-0.1l15.6-7.5c1.6-0.8,2.7-2.4,2.7-4.3v-50.8c0-1.8-1-3.5-2.7-4.3l-15.6-7.5
		c-1.6-0.8-3.4-0.6-4.8,0.4c-0.2,0.1-0.4,0.3-0.6,0.5l-29.8,27.2l-13-9.9c-1.2-0.9-2.9-0.8-4,0.2l-4.2,3.8c-1.4,1.2-1.4,3.4,0,4.7
		l11.3,10.3l-11.3,10.3c-1.4,1.3-1.4,3.4,0,4.7l4.2,3.8c1.1,1,2.8,1.1,4,0.2l13-9.9l29.8,27.2C122.7,417.2,123.3,417.5,123.9,417.8z
		 M127,363.3l-22.6,17.2l22.6,17.2V363.3z"/>
</g>
</svg>
