<?xml version="1.0" encoding="utf-8"?>
<!-- Generator: Adobe Illustrator 27.0.1, SVG Export Plug-In . SVG Version: 6.00 Build 0)  -->
<svg version="1.1" xmlns="http://www.w3.org/2000/svg" xmlns:xlink="http://www.w3.org/1999/xlink" x="0px" y="0px"
	 viewBox="0 0 518.1 446" style="enable-background:new 0 0 518.1 446;" xml:space="preserve">
<style type="text/css">
	.st0{fill:#636466;}
	.st1{fill:#E12726;}
	.st2{fill:#B3282D;}
	.st3{fill:#932724;}
</style>
<g id="Layer_2">
</g>
<g id="Layer_1">
	<g>
		<polygon class="st0" points="420.9,148.5 420.9,160.3 423.5,160.3 423.5,155.7 429.2,155.7 429.2,153.3 423.5,153.3 423.5,150.8 
			429.9,150.8 429.9,148.5 		"/>
		<path class="st0" d="M435.7,151.5l1.6,3.8h-3.1L435.7,151.5z M434.5,148.4l-5.1,11.9h2.6l1.1-2.6h5l1.1,2.6h2.7l-5.1-11.9H434.5
			L434.5,148.4z"/>
		<polygon class="st0" points="451.1,148.5 451.1,155.7 445.6,148.5 443.2,148.5 443.2,160.3 445.7,160.3 445.7,152.8 451.5,160.3 
			453.7,160.3 453.7,148.5 		"/>
		<g>
			<path class="st0" d="M455.5,158.5l1.5-1.8c1.1,0.9,2.2,1.4,3.5,1.4c1.1,0,1.7-0.4,1.7-1.1v0c0-0.7-0.4-1-2.4-1.5
				c-2.4-0.6-3.9-1.3-3.9-3.6v0c0-2.1,1.7-3.6,4.1-3.6c1.7,0,3.2,0.5,4.4,1.5l-1.4,2c-1-0.7-2.1-1.2-3.1-1.2s-1.5,0.5-1.5,1v0
				c0,0.8,0.5,1,2.6,1.6c2.4,0.6,3.8,1.5,3.8,3.6v0c0,2.4-1.8,3.7-4.3,3.7C458.7,160.4,456.9,159.8,455.5,158.5"/>
			<polygon class="st0" points="466.9,148.5 469.5,148.5 469.5,153.1 474.3,153.1 474.3,148.5 476.9,148.5 476.9,160.3 474.3,160.3 
				474.3,155.5 469.5,155.5 469.5,160.3 466.9,160.3 			"/>
			<path class="st0" d="M483.4,148.4h2.4l5.1,11.9h-2.7l-1.1-2.6h-5l-1.1,2.6h-2.6L483.4,148.4z M486.1,155.3l-1.6-3.8l-1.6,3.8
				H486.1z"/>
			<polygon class="st0" points="489.7,148.5 492.5,148.5 494.9,156.5 497.6,148.4 499.8,148.4 502.5,156.5 504.9,148.5 507.6,148.5 
				503.6,160.4 501.3,160.4 498.7,152.6 496,160.4 493.7,160.4 			"/>
			<polygon class="st0" points="509.1,148.5 518,148.5 518,150.8 511.7,150.8 511.7,153.2 517.3,153.2 517.3,155.5 511.7,155.5 
				511.7,158 518.1,158 518.1,160.3 509.1,160.3 			"/>
			<path class="st1" d="M469.4,94.1l-11.4-11.4c-0.1-0.1-0.2-0.1-0.3-0.1c-0.1,0-0.2,0.2-0.2,0.3v7.6c0,0.4,0.2,0.8,0.5,1.1l0,0
				l6.9,6.9L469.4,94.1z"/>
			<path class="st2" d="M450.3,90.3c-0.1-0.1-0.2-0.1-0.3-0.1c-0.1,0-0.2,0.1-0.2,0.2l0,7.6c-0.1,0.7,0.5,1.2,0.5,1.2l11,11
				c0.1,0,0.2,0.2,0.4,0.2v-8.6L450.3,90.3z"/>
			<path class="st1" d="M469.4,103l-4.4-4.5l-3.3,3.3v8.6c0.3,0,0.5-0.2,0.5-0.2L469.4,103z"/>
			<path class="st1" d="M481.3,82.9c0-0.2-0.2-0.3-0.3-0.3c-0.1,0-0.1,0-0.2,0.1l-11.4,11.4v8.9l11.2-11.2l0,0
				c0.4-0.3,0.6-0.8,0.6-1.2L481.3,82.9L481.3,82.9z"/>
			<polygon class="st2" points="469.4,94.1 465,98.5 469.4,103 			"/>
			<path class="st1" d="M450.9,112.8l-11.4,11.4c-0.1,0.1-0.1,0.2-0.1,0.3c0,0.1,0.2,0.2,0.3,0.2h7.6c0.4,0,0.8-0.2,1.1-0.5l0,0
				l6.9-6.9L450.9,112.8z"/>
			<path class="st2" d="M447.1,131.9c-0.1,0.1-0.1,0.2-0.1,0.3c0,0.1,0.1,0.2,0.2,0.2l7.6,0c0.7,0.1,1.2-0.5,1.2-0.5l11-11
				c0-0.1,0.2-0.2,0.2-0.4h-8.6L447.1,131.9z"/>
			<path class="st1" d="M459.7,112.8l-4.5,4.4l3.3,3.3h8.6c0-0.3-0.2-0.5-0.2-0.5L459.7,112.8z"/>
			<path class="st1" d="M439.6,100.9c-0.2,0-0.3,0.2-0.3,0.3c0,0.1,0,0.1,0.1,0.2l11.4,11.4h8.9l-11.2-11.2l0,0
				c-0.3-0.4-0.8-0.6-1.2-0.6L439.6,100.9L439.6,100.9z"/>
			<polygon class="st2" points="450.9,112.8 455.3,117.2 459.7,112.8 			"/>
			<path class="st1" d="M469.5,131.4l11.4,11.4c0.1,0.1,0.2,0.1,0.3,0.1c0.1,0,0.2-0.2,0.2-0.3c0,0,0-7.6,0-7.6
				c0-0.4-0.2-0.8-0.5-1.1l0,0l-7-7L469.5,131.4z"/>
			<path class="st2" d="M488.6,135.2c0.1,0.1,0.2,0.1,0.3,0.1c0.1,0,0.2-0.1,0.2-0.2l0-7.6c0.1-0.7-0.5-1.2-0.5-1.2l-11-11
				c0,0-0.2-0.2-0.4-0.2v8.6L488.6,135.2z"/>
			<path class="st1" d="M469.5,122.5l4.4,4.5l3.3-3.3v-8.6c-0.3,0-0.5,0.2-0.5,0.2L469.5,122.5z"/>
			<path class="st1" d="M457.6,142.6c0,0.2,0.2,0.3,0.3,0.3c0.1,0,0.1,0,0.2-0.1l11.4-11.4v-8.9l-11.2,11.2l0,0
				c-0.4,0.3-0.6,0.8-0.6,1.2L457.6,142.6L457.6,142.6z"/>
			<polygon class="st2" points="469.5,131.4 473.9,127 469.5,122.5 			"/>
			<path class="st1" d="M488.2,112.7l11.4-11.4c0.1-0.1,0.1-0.2,0.1-0.3c0-0.1-0.2-0.2-0.3-0.2h-7.6c-0.4,0-0.8,0.2-1.1,0.5l0,0
				l-6.9,6.9L488.2,112.7z"/>
			<path class="st2" d="M492,93.6c0.1-0.1,0.1-0.2,0.1-0.3c0-0.1-0.1-0.2-0.2-0.2l-7.6,0c-0.7-0.1-1.2,0.5-1.2,0.5l-11,11
				c0,0-0.2,0.2-0.2,0.4h8.6L492,93.6z"/>
			<path class="st1" d="M479.3,112.7l4.5-4.4l-3.3-3.3h-8.6c0,0.3,0.2,0.5,0.2,0.5L479.3,112.7z"/>
			<path class="st1" d="M499.4,124.6c0.2,0,0.3-0.2,0.3-0.3c0-0.1,0-0.1-0.1-0.2l-11.4-11.4h-8.9l11.2,11.2l0,0
				c0.3,0.4,0.8,0.6,1.2,0.6H499.4L499.4,124.6z"/>
			<polygon class="st2" points="488.2,112.7 483.8,108.3 479.3,112.7 			"/>
		</g>
	</g>
	<g>
		<polygon class="st3" points="30.7,290.6 30.7,250.6 51,276.7 70.7,250.6 70.7,290.6 63.2,290.6 63.2,275.4 51.4,290.6 38.3,275.3 
			38.3,290.6 		"/>
		<path class="st3" d="M0,290.6c0,0,4.2,0,9.3,0l3.8-6.3h8.9v6.3c3.6,0,6.1,0,6.1,0v-39.9L0,290.6z M15.5,280.4l6.5-10.6v10.6H15.5z
			"/>
		<path class="st3" d="M73.2,250.6v39.9c0,0,2.6,0,6.1,0v-6.3h8.9l3.8,6.3c5.1,0,9.3,0,9.3,0L73.2,250.6z M79.3,280.4v-10.6
			l6.5,10.6H79.3z"/>
	</g>
</g>
</svg>
