<?xml version="1.0" encoding="utf-8"?>
<!-- Generator: Adobe Illustrator 27.0.1, SVG Export Plug-In . SVG Version: 6.00 Build 0)  -->
<svg version="1.1" id="Layer_1" xmlns="http://www.w3.org/2000/svg" xmlns:xlink="http://www.w3.org/1999/xlink" x="0px" y="0px"
	 viewBox="0 0 481.9 446" style="enable-background:new 0 0 481.9 446;" xml:space="preserve">
<style type="text/css">
	.st0{fill:#9C563D;}
	.st1{fill:#D1BB78;}
	.st2{fill:#F2BA9A;}
	.st3{fill:#FFECE0;}
	.st4{fill:#1A191F;}
</style>
<g>
	<path class="st0" d="M28.6,174.4c-18.2,3-31.8,10.1-27.9,31.2c3.8,21.1,21.1,25.5,33.1,21.1c12-4.4,14.8-19.2,18.3-19.4
		c3.6-0.3,27.4-3.6,28.5-3.6s7.1,15.9,26.8,12.3c19.7-3.6,22.2-23.5,15.3-37c-6.8-13.4-14.5-15.6-29.6-13.4
		C78.1,167.9,36.8,173.1,28.6,174.4z"/>
	<path class="st1" d="M20.3,186.2c-0.6,4.4,2.1,10.3,1.2,10.3c-0.8,0-9.9-0.2-9.9,2.6c0,2.7-0.5,6.8,3.3,6.8s7.6-1.4,7.9,0.8
		c1.3,7.5-0.4,9.2,3.7,9.5c4.1,0.3,5.1-1,4.5-5.1c0-1.9-0.5-6.3,0.6-6.6c1.1-0.3,8.2-0.6,8.3-2.1c0.2-3,0.9-7.8-3.7-7.2
		c-4.7,0.5-7,0.8-7-0.6c0-1.4-0.1-9-0.9-9.8C27.5,184,20.5,184.3,20.3,186.2z"/>
	<path class="st2" d="M50.5,189.6c0.5,2.5,1,3.9,4,3.5c3.8-0.5,3.5-1.9,3.3-4.1c-0.4-3.7-2.6-3.6-4.2-3.3
		C52,186,49.8,186.2,50.5,189.6z"/>
	<path class="st2" d="M66.2,187.3c0.5,2.5,1,3.9,4,3.5c3.8-0.5,3.5-1.9,3.3-4.1c-0.4-3.7-2.6-3.6-4.2-3.3
		C67.6,183.6,65.4,183.9,66.2,187.3z"/>
	<path class="st1" d="M88.8,187.8c-3.3,0.1-7.7,7.4-0.5,8.2C95.4,196.9,95.4,187.6,88.8,187.8z"/>
	<path class="st3" d="M98.4,175.2c-4,0.9-7.4,8.2,1.1,8.8C108,184.6,104.4,173.9,98.4,175.2z"/>
	<path class="st1" d="M105.5,191.1c1.1,6,10.4,3.3,9.6-1.4C114.3,185.1,104.4,185.1,105.5,191.1z"/>
	<g>
		<path class="st4" d="M65,169.3c-2.2-11.7-16.9-14.6-25.7-19.7c-7.4-4.2-11.5-10.6-13-19.1c-0.8-4.7-0.2-11.1,2.8-14.8
			c0.6-0.7-0.4-1.7-1-1c-7,8.8-3.1,24,4.1,31.3c4.7,4.7,11.3,7.3,17.2,10c6.1,2.8,12.9,6.3,14.3,13.5
			C63.8,170.6,65.2,170.2,65,169.3L65,169.3z"/>
	</g>
	<path class="st3" d="M97.6,204c1.4,4.5,9.9,4.7,8.8-1.6C105.2,196.1,95.9,198.8,97.6,204z"/>
	<g>
		<path class="st4" d="M3.8,194c-1.1,8.7,2.6,17.1,8.5,23.3c3,3.1,6.7,5.4,10.8,6.8c4.7,1.6,9.2-0.3,13.2-2.7
			c0.8-0.5,0.1-1.7-0.7-1.2c-4.2,2.5-8.2,3.8-13,2.2c-3.8-1.3-7.2-3.9-9.9-6.8c-5.4-5.7-8.4-13.8-7.4-21.6
			C5.3,193.1,3.9,193.1,3.8,194L3.8,194z"/>
	</g>
	<g>
		<path class="st4" d="M83.2,201.5c2.9,5,7.4,7.8,12.5,10.1c5.6,2.4,11.8,1,17.2-1.2c0.8-0.3,0.5-1.7-0.4-1.4
			c-5.8,2.3-11.4,3.3-17.3,0.8c-4.5-1.9-8.4-4.8-10.8-9C84,200,82.7,200.7,83.2,201.5L83.2,201.5z"/>
	</g>
</g>
<g>
	<path class="st0" d="M399.6,279.1c-6.3-1.5-8.9-7.8-18.2-10.7c-9.2-3-21.2,7.2-25.3,21.2c-4.2,14-1.2,12.8-4.8,24.7
		c-3.6,11.9,2.4,13.7,13.1,5.1c10.7-8.6,17.6-19.1,18.5-27.7c10.7,1.8,14.6,0.9,14.6,0.9L399.6,279.1z"/>
	<g>
		<path class="st4" d="M382.3,283.4c0,3.6,0.5,7.4-1.1,10.8c-0.4,0.9,0.9,1.7,1.3,0.8c1.7-3.7,1.3-7.6,1.3-11.6
			C383.8,282.4,382.3,282.4,382.3,283.4L382.3,283.4z"/>
	</g>
	<path class="st0" d="M432.5,278.8c6.3-1.5,8.9-7.8,18.2-10.7c9.2-3,21.2,7.2,25.3,21.2c4.2,14,1.2,12.8,4.8,24.7
		c3.6,11.9-2.4,13.7-13.1,5.1c-10.7-8.6-17.6-19.1-18.5-27.7c-10.7,1.8-14.6,0.9-14.6,0.9L432.5,278.8z"/>
	<g>
		<path class="st4" d="M448.3,283.1c0,4-0.4,7.9,1.3,11.6c0.4,0.9,1.7,0.1,1.3-0.8c-1.6-3.4-1.1-7.2-1.1-10.8
			C449.9,282.1,448.3,282.1,448.3,283.1L448.3,283.1z"/>
	</g>
	<path class="st0" d="M414.8,275.3c-12.7,1.5-28,4.2-31.3,31.3c-3.3,27.2,17,36.3,37,35.2c20-1.1,30.1-20.2,28.3-34.4
		C447,293.4,439.8,272.3,414.8,275.3z"/>
	<path class="st2" d="M441.6,331c0.2-5.7-3.7-8.9-7.8-12.5c-5.1-4.4-12.2-9.1-10.1-20.2c1.9-9.8,4.4-16.6,2.9-22.5
		c-3.4-0.8-7.3-1.1-11.8-0.5c-2.8,0.3-5.7,0.7-8.5,1.4c0.8,8.2,4.9,15,4.9,23c0,9.1-2.1,9.7-10.7,16.9c-6.6,5.5-10.7,10.5-8.2,17.4
		c7.2,6.2,17.7,8.4,28.2,7.8C429.7,341.3,436.8,337,441.6,331z"/>
	<g>
		<path class="st4" d="M400.9,309.5c-1.7-0.5-0.1-3,1.1-3.3c0.2-0.1,0.4-0.1,0.6,0.2c0.4,0.4,0.7,1.3,0.6,1.8
			c-0.3,1.5-3,1.3-2.8-0.2c0.2-1.2,1.6-1.1,2,0c0.2,0.5,0.2,2.2-0.7,1.7c-0.9-0.5-0.8-1.5,0.1-1.9c0.3-0.1,0.4-0.1,0.5,0.1
			c0.1,0.3,0.1,0.6,0,0.9c0,0.1-0.1,0.5-0.1,0.4c0,0,0,0-0.1,0c-0.2-0.1-0.3-0.2-0.4-0.3c-0.1-0.2-0.1-0.4-0.2-0.2c0-0.1,0,0,0,0
			c0.1-0.1,0.3-0.1,0.4-0.1c0.3,0,0.8,0.7,0.2,0.6c-0.4-0.1-0.7-0.7-0.8-1.1c0-0.1,0.1-0.5,0.1-0.5c0,0-0.1,0-0.1,0
			c0.4,0.2,0.6,0.5,0.8,0.9c0.1,0.2,0.2,0.4,0.2,0.6c0,0.1,0,0.2,0,0.3c0.1-0.1-0.1,0-0.3,0c-0.4,0-0.8-0.1-1.1-0.3
			c-0.5-0.4,0.8-1.3,1-1.5c0.9-0.5,0.1-1.8-0.8-1.3c-1.1,0.6-2.1,1.8-1.8,3.1c0.3,1.3,2.2,1.7,3.3,1.4c2.2-0.5,0.9-3.3-0.1-4.2
			c-0.7-0.6-1.6-0.8-2.3-0.1c-1,1-0.5,2.5,0.3,3.5c1.1,1.3,3.5,0.8,3.3-1.1c-0.2-1.5-1.9-2.2-3.2-1.5c-1.9,1.1,0.4,4,2.1,3.2
			c1.1-0.5,1.1-2.2,0.9-3.1c-0.3-1.1-1.5-1.5-2.5-1.1c-1,0.4-1.8,1.4-1.8,2.5c0,1.3,1.3,2.4,2.5,2.5c1.3,0,1.9-1.3,2-2.3
			c0.2-1.3-0.5-2.6-1.6-3.2c-2.5-1.4-4.7,2.3-2.8,4.1c1.2,1.1,3.1,1,4.3-0.1c1.2-1.1,0.9-2.9,0.2-4.1c-2.4-4-8.6,3.6-3.6,5.2
			C401.4,311.3,401.8,309.8,400.9,309.5L400.9,309.5z"/>
	</g>
	<g>
		<path class="st4" d="M432.6,310.5c2.4-0.8,2.1-3.3,0.8-5c-0.6-0.8-1.5-1.3-2.4-1.4c-1.2-0.1-1.9,0.9-2.3,1.8
			c-0.7,1.6-0.2,3.4,1.5,4c1.4,0.6,3.3,0,3.9-1.5c0.5-1.2,0-2.5-1.1-3.2c-1.2-0.8-2.7-0.1-3.4,1c-0.7,1-0.6,2.4-0.1,3.5
			c0.6,1.1,2,1.2,2.9,0.5c1-0.8,1.5-2,0.8-3.2c-0.5-0.9-1.6-1.6-2.7-1.4c-2.2,0.4-1.8,5.1,0.7,4.4c0.8-0.2,1.6-1,1.7-1.8
			c0.2-1.2-0.9-1.9-2-1.8c-1.3,0.1-2.6,2.1-1.4,3.2c1.3,1.2,3,0.1,3.5-1.4c0.3-0.9,0.1-2.3-1-2.7c-0.8-0.3-1.6,0.2-2.1,0.8
			c-1,1.1-1.8,3.6,0.4,3.9c1.2,0.2,2.8-0.3,3.1-1.6c0.3-1.3-0.8-2.5-1.8-3c-0.9-0.5-1.6,0.9-0.8,1.3c0.5,0.3,0.9,0.6,1.1,1.2
			c0.2,0.5-0.9,0.6-1.2,0.6c-0.2,0-0.3,0-0.3-0.1c0.1,0.1,0,0,0,0.1c0-0.3,0.1-0.6,0.2-0.9c0.1-0.3,0.4-0.6,0.6-0.7
			c0.1-0.1,0.3-0.2,0.3-0.2c0,0-0.1-0.1-0.1,0c0.2,0.2,0,0.8-0.2,1.2c-0.1,0.1-0.6,0.7-0.8,0.4c-0.2-0.2,0.4-0.6,0.6-0.6
			c0.1,0,0.3,0.2,0.3,0.1c0,0,0-0.2,0,0.1c0,0.1-0.3,0.4-0.5,0.5c-0.2,0.1-0.2,0-0.1,0.1c-0.1,0,0-0.1-0.1-0.2
			c-0.1-0.2-0.1-1.2,0-1.2c0.6-0.2,1.4,0.6,1.2,1.2c-0.1,0.3-0.6,0.8-0.9,0.8c-0.3-0.1-0.4-0.7-0.5-0.9c0-0.6,0.2-1.5,0.8-1.7
			c0.6-0.2,1.3,0.2,1.3,0.9c0.1,0.9-1.1,1.3-1.8,1.1c-1.2-0.3-1.1-1.6-0.7-2.5c0.5-1,1.5-0.3,2.1,0.5c0.6,0.8,1,2-0.2,2.4
			C431.3,309.4,431.7,310.8,432.6,310.5L432.6,310.5z"/>
	</g>
	<g>
		<path class="st4" d="M406.1,325.5c1.4,2.2,4.5,5.1,7.5,3.9c2.6-1.2,3.4-4.9,3.4-7.5c-0.5,0.1-1,0.3-1.4,0.4
			c1.6,2.7,2.4,5.6,5.7,6.5c3.4,1,6.1-2.8,7.4-5.3c0.5-0.9-0.9-1.7-1.3-0.8c-1.3,2.6-3.9,6.6-7.6,3.7c-1.4-1.1-2-3.4-2.9-4.9
			c-0.4-0.7-1.4-0.4-1.4,0.4c0,1.3-0.3,2.5-0.7,3.8c-1.3,4-5.8,1.5-7.3-0.9C406.9,323.9,405.5,324.7,406.1,325.5L406.1,325.5z"/>
	</g>
	<g>
		<path class="st0" d="M419.9,314.8c-1.8,0-10.7-0.5-8.9,3.1c0.5,1,1.7,1.6,2.5,2.3c0.7,0.7,1.4,1.7,2.5,1.7
			c1.8,0.2,4.6-2.4,5.6-3.9c1.1-1.4,0.4-3.7-1.7-3.1"/>
		<g>
			<path class="st0" d="M419.9,314c-2.6,0-5.4-0.2-7.9,0.7c-2.7,1-2.3,3.6-0.3,5.1c1.6,1.2,2.6,2.8,4.7,2.9c1.7,0,3.4-1.6,4.5-2.7
				c1-1,2.2-2.4,1.9-3.9c-0.3-1.6-1.6-2.2-3.1-1.9c-1,0.2-0.6,1.7,0.4,1.5c1.2,0.6,1.5,1.2,0.8,2c-0.3,0.5-0.7,0.9-1.1,1.3
				c-0.9,0.9-1.9,1.8-3.2,2.2c-1.1,0.4-5.9-3.5-4.9-4.5c0.9-1,3.3-0.9,4.5-1c1.2-0.1,2.4,0,3.7,0C420.9,315.6,420.9,314,419.9,314
				L419.9,314z"/>
		</g>
	</g>
</g>
</svg>
