<?xml version="1.0" encoding="utf-8"?>
<!-- Generator: Adobe Illustrator 27.0.1, SVG Export Plug-In . SVG Version: 6.00 Build 0)  -->
<svg version="1.1" id="Layer_1" xmlns="http://www.w3.org/2000/svg" xmlns:xlink="http://www.w3.org/1999/xlink" x="0px" y="0px"
	 viewBox="0 0 505.4 446" style="enable-background:new 0 0 505.4 446;" xml:space="preserve">
<style type="text/css">
	.st0{fill:#DD912C;}
	.st1{fill:#D6D6D6;stroke:#190B0B;stroke-linecap:round;stroke-linejoin:round;stroke-miterlimit:10;}
	.st2{fill:#FFFFFF;stroke:#190B0B;stroke-linecap:round;stroke-linejoin:round;stroke-miterlimit:10;}
	.st3{fill:#1E1E1E;stroke:#190B0B;stroke-linecap:round;stroke-linejoin:round;stroke-miterlimit:10;}
	.st4{fill:none;stroke:#190B0B;stroke-linecap:round;stroke-linejoin:round;stroke-miterlimit:10;}
	.st5{fill:#3F3B35;stroke:#190B0B;stroke-miterlimit:10;}
	.st6{opacity:0.1822;fill:#9B9189;}
	.st7{fill:#111111;stroke:#190B0B;stroke-linecap:round;stroke-linejoin:round;stroke-miterlimit:10;}
	.st8{fill:#303030;}
	.st9{fill:#FFEEA6;}
	.st10{fill:#FFE773;}
	.st11{fill:#FFE445;}
	.st12{fill:#FFE21A;}
	.st13{opacity:0.5375;fill:#DD912C;}
	.st14{fill:#FFAFA4;}
	.st15{fill:#FF9280;}
	.st16{fill:#ED7458;}
	.st17{fill:#EE5B30;}
	.st18{opacity:0.6876;fill:#DD912C;}
	.st19{fill:#A4EDDF;}
	.st20{fill:#80D1C3;}
	.st21{fill:#65BAAE;}
	.st22{fill:#40958A;}
	.st23{fill:#40958A;stroke:#190B0B;stroke-linecap:round;stroke-linejoin:round;stroke-miterlimit:10;}
	.st24{fill:#297267;stroke:#190B0B;stroke-linecap:round;stroke-linejoin:round;stroke-miterlimit:10;}
	.st25{fill:#332F29;stroke:#190B0B;stroke-miterlimit:10;}
	.st26{fill:#4F4942;stroke:#190B0B;stroke-miterlimit:10;}
	.st27{opacity:0.2278;fill:#828181;}
	.st28{fill:#EE5B30;stroke:#190B0B;stroke-linecap:round;stroke-linejoin:bevel;stroke-miterlimit:10;}
	.st29{fill:#D8401D;}
	.st30{fill:#FCC57C;stroke:#190B0B;stroke-linecap:round;stroke-linejoin:round;stroke-miterlimit:10;}
	.st31{fill:#FFE21A;stroke:#190B0B;stroke-linecap:round;stroke-linejoin:round;stroke-miterlimit:10;}
	.st32{opacity:0.7707;fill:#297267;}
	.st33{fill:#190B0B;}
	.st34{fill:#FFF0A4;}
	.st35{fill:#50AD9F;}
	.st36{fill:#63D1E1;}
</style>
<g>
	<path class="st0" d="M23,389.7c-3.6,1.5-8.7,1.6-11.6,4.1c-0.4,0.4,0,2,0,2.7c3.4,1.5,7.2,2,11,2.5c7,0.9,13.9,1.9,20.9,2.6
		c10.1,1,20.2,1.7,30.3,2.3c18.7,1.2,34.9,2.2,53.6,3.3c1,0.1,2,0.1,3-0.1c1.2-0.3,2.3-1.1,3.3-1.9c12.8-10,25-20.8,36.5-32.3
		c0.1-0.7,0.2-1.4,0.1-2.7c-8.5-0.7-17.2,1.2-26,1.4c-6.1,0.2-12.3,0.8-18.4,0.4c-4.2-0.3-8.3-1.1-12.5-1.8
		c-12.9-2.1-26.1-3-39.2-2.6c-2.6,0.1-5.3-0.1-7.6,1c-2.4,1.1-4.7,2.8-7,4c-5.6,3-11.3,5.8-17,8.5C36,384.1,29.5,386.9,23,389.7z"/>
	<path class="st1" d="M21.5,382.2c-3.6,1.5-8.7,1.6-11.6,4.1c-0.4,0.4,0,2,0,2.7c3.4,1.5,7.2,2,11,2.5c7,0.9,13.9,1.9,20.9,2.6
		c10.1,1,20.2,1.7,30.3,2.3c18.7,1.2,34.9,2.2,53.6,3.3c1,0.1,2,0.1,3-0.1c1.2-0.3,2.3-1.1,3.3-1.9c12.8-10,25-20.8,36.5-32.3
		c0.1-0.7,0.2-1.4,0.1-2.7c-8.5-0.7-17.2,1.2-26,1.4c-6.1,0.2-12.3,0.8-18.4,0.4c-4.2-0.3-8.3-1.1-12.5-1.8
		c-12.9-2.1-26.1-3-39.2-2.6c-2.6,0.1-5.3-0.1-7.6,1c-2.4,1.1-4.7,2.8-7,4c-5.6,3-11.3,5.8-17,8.5C34.6,376.6,28.1,379.5,21.5,382.2
		z"/>
	<path class="st2" d="M21.5,379.5c-4.2,1.7-8.5,3.5-11.6,6.7c3.4,1.5,7.2,2,11,2.5c7,0.9,13.9,1.9,20.9,2.6
		c10.1,1,20.2,1.7,30.3,2.3c18.7,1.2,34.9,2.2,53.6,3.3c1,0.1,2,0.1,3-0.1c1.2-0.3,2.3-1.1,3.3-1.9c12.8-10,25-20.8,36.5-32.3
		c-9.4-0.8-16.4-1.5-25.8-1.2c-6.1,0.2-12.3,0.8-18.4,0.4c-4.2-0.3-8.3-1.1-12.5-1.8c-12.9-2.1-26.1-3-39.2-2.6
		c-2.6,0.1-5.3-0.1-7.6,1c-2.4,1.1-4.7,2.8-7,4c-5.6,3-11.3,5.8-17,8.5C34.6,373.9,28.1,376.8,21.5,379.5z"/>
	<path class="st3" d="M60,367.2c1.6-1.3,3.2-2.8,5.2-3.6c3.6-1.5,7.6-0.6,11.5-0.3c25.4,1.8,48.5,3.9,72.8,4.2
		c0.9,0,1.4,1.1,0.7,1.8c-4.9,4.4-10.1,8.4-15.6,11.9c-0.9,0.6-1.8,1.1-2.8,1.4c-1.3,0.4-2.6,0.3-3.9,0.2
		c-25.1-1.6-50.1-3.7-75.1-6.4c-0.9-0.1-3.5,0.2-3.6-1.2c0-0.9,2.5-1.9,3.2-2.3C55,371.1,57.5,369.2,60,367.2z"/>
	<path class="st4" d="M66.4,367.6c22.4,1.6,43.6,4.1,66.8,5.1"/>
	<path class="st4" d="M62.6,371.5c22.7,2.4,45.5,4.8,68.2,7.2"/>
	<path class="st4" d="M74.6,365.9c-1.9,1.5-7.1,8.1-8.5,9.1"/>
	<path class="st4" d="M81.6,366.2c-1.9,1.5-7.1,8.1-8.5,9.1"/>
	<path class="st4" d="M87.7,367.8c-1.9,1.5-7.1,8.1-8.5,9.1"/>
	<path class="st4" d="M95,368.1c-1.9,1.5-7.1,8.1-8.5,9.1"/>
	<path class="st4" d="M102.4,368.4c-1.9,1.5-7.1,8.1-8.5,9.1"/>
	<path class="st4" d="M108.9,369c-1.9,1.5-7.1,8.1-8.5,9.1"/>
	<path class="st4" d="M116.3,369.6c-1.9,1.5-7.1,8.1-8.5,9.1"/>
	<path class="st4" d="M123.8,369.6c-1.9,1.5-7.1,8.1-8.5,9.1"/>
	<path class="st4" d="M131.2,369.6c-1.9,1.5-7.1,8.1-8.5,9.1"/>
	<path class="st4" d="M55.2,391.9c1.8-1.7,3.6-3.4,5.4-5c2.7-2.5,6.5-5.7,9.4-8.5"/>
	<path class="st4" d="M92.8,394.9c1.8-1.7,3.6-3.4,5.4-5c2.7-2.5,6.5-5.7,9.4-8.5"/>
	<path class="st5" d="M168.6,362.4c6.9-18.9,11.2-36.9,14.4-56.6c0.5-2.8,0.2-6-1.8-7.9c-2-1.9-5.2-1.9-8-1.8
		c-13.1,0.4-26.2-1.7-39.3-2.5c-6.3-0.3-12.5-0.4-18.8-0.4c-10.4,0-20.8-0.1-31.2-0.1c-1.3,0-2.6,0-3.8,0.6
		c-1.6,0.8-2.5,2.5-3.1,4.2c-1.8,4.9-2.4,10.1-3.1,15.2c-2.1,14.9-5.6,29.6-9,44.3C99.8,361.2,133.6,363,168.6,362.4z"/>
	<path class="st3" d="M179.9,307.6c-3,17.9-7.1,34.3-13.6,51.6c-33.2,0.6-65.1-1.1-98.1-4.5c0.2-0.8,0.4-1.5,0.6-2.3
		c3.1-12.7,6.1-25.3,8-38.2c0.7-4.7,1.2-9.5,2.9-13.9c0.6-1.5,1.4-3.1,2.9-3.9c1.1-0.5,2.3-0.5,3.6-0.5c9.8,0,19.7,0.1,29.6,0.1
		c5.9,0,11.9,0,17.8,0.4c12.4,0.7,24.8,2.6,37.2,2.2c0.8,0,1.6,0,2.4,0c1.9,0.1,3.8,0.4,5.1,1.6
		C180.1,302.2,180.3,305.1,179.9,307.6z"/>
	<path class="st6" d="M77.4,345.4c-0.1,0.7-0.1,1.6,0.5,2.1c0.6,0.4,1.4,0.2,2.1,0c4.3-1.5,8.6-3.2,12.8-4.9
		c21.6-8.7,43.3-17.4,64.9-26c2.4-0.9,4.8-1.9,6.7-3.6c1.9-1.7,3.2-4.3,2.7-6.8c-13-3.2-26.4-3.7-39.8-4.3c-7.7-0.3-15.4-0.6-23.1-1
		c-3.8-0.2-7.7-0.3-11.5-0.5c-2.4-0.1-8.1-1.4-9.9,0.4c-1.5,1.4-1.3,8.1-1.6,10.1c-0.5,3.8-1,7.6-1.4,11.4
		C78.9,329.9,78.1,337.6,77.4,345.4z"/>
	<g>
		<path class="st4" d="M128.6,310.1c-11.5,4.4-22.9,9.2-34.2,14.3"/>
		<path class="st4" d="M136.3,318.2c-11.5,4.4-22.9,9.2-34.2,14.3"/>
		<path class="st4" d="M121.2,318.9c-11.5,4.4-22.9,9.2-34.2,14.3"/>
	</g>
	<path class="st7" d="M179.9,307.6c-3,17.9-7.1,34.3-13.6,51.6c-33.2,0.6-65.1-1.1-98.1-4.5c0.2-0.8,0.4-1.5,0.6-2.3
		c0.6-0.3,1.4-0.4,2.1-0.5c20.5-2.1,41.1-2,61.7-1.7c8.6,0.1,17.2,0.2,25.5-1.9c1.7-0.4,3.4-1,4.6-2.2c1-1,1.5-2.4,2-3.8
		c1.7-4.5,3.3-9,4.8-13.5c2.5-8,4.4-16.3,4-24.8c-0.1-1.5-0.8-3.8-0.5-5.2c0-0.1,0.1-0.2,0.1-0.3c1.9,0.1,3.8,0.4,5.1,1.6
		C180.1,302.2,180.3,305.1,179.9,307.6z"/>
	<path class="st8" d="M73.4,371.6c0.3,0.1,0.6,0.1,0.8,0.1c0.4-0.1,0.7-0.4,0.9-0.8c0.4-0.5,0.7-0.9,1-1.4c-0.9-0.2-1.8-0.3-2.6-0.5
		c-0.1,0-0.2,0-0.3,0c-0.3,0-0.5,0.3-0.6,0.5c-0.2,0.3-0.9,1.2-0.8,1.6C72,371.4,73.1,371.4,73.4,371.6z"/>
	<path class="st8" d="M80.4,372.2c0.3,0.1,0.6,0.1,0.8,0.1c0.4-0.1,0.7-0.4,0.9-0.8c0.4-0.5,0.7-0.9,1-1.4c-0.9-0.2-1.8-0.3-2.6-0.5
		c-0.1,0-0.2,0-0.3,0c-0.3,0-0.5,0.3-0.6,0.5c-0.2,0.3-0.9,1.2-0.8,1.6C79,372,80.1,372,80.4,372.2z"/>
	<path class="st8" d="M76.7,367.4c0.3,0.1,0.6,0.1,0.8,0.1c0.4-0.1,0.7-0.4,0.9-0.8c0.4-0.5,0.7-0.9,1-1.4c-0.9-0.2-1.8-0.3-2.6-0.5
		c-0.1,0-0.2,0-0.3,0c-0.3,0-0.5,0.3-0.6,0.5c-0.2,0.3-0.9,1.2-0.8,1.6C75.2,367.2,76.3,367.2,76.7,367.4z"/>
	<path class="st8" d="M66.8,370.9c0.3,0.1,0.6,0.1,0.8,0.1c0.4-0.1,0.7-0.4,0.9-0.8c0.4-0.5,0.7-0.9,1-1.4c-0.9-0.2-1.8-0.3-2.6-0.5
		c-0.1,0-0.2,0-0.3,0c-0.3,0-0.5,0.3-0.6,0.5c-0.2,0.3-0.9,1.2-0.8,1.6C65.4,370.7,66.5,370.7,66.8,370.9z"/>
	<path class="st8" d="M87.2,372.9c0.3,0.1,0.6,0.1,0.8,0.1c0.4-0.1,0.7-0.4,0.9-0.8c0.4-0.5,0.7-0.9,1-1.4c-0.9-0.2-1.8-0.3-2.6-0.5
		c-0.1,0-0.2,0-0.3,0c-0.3,0-0.5,0.3-0.6,0.5c-0.2,0.3-0.9,1.2-0.8,1.6C85.7,372.8,86.8,372.8,87.2,372.9z"/>
	<path class="st8" d="M94.2,373.8c0.3,0.1,0.6,0.1,0.8,0.1c0.4-0.1,0.7-0.4,0.9-0.8c0.4-0.5,0.7-0.9,1-1.4c-0.9-0.2-1.8-0.3-2.6-0.5
		c-0.1,0-0.2,0-0.3,0c-0.3,0-0.5,0.3-0.6,0.5c-0.2,0.3-0.9,1.2-0.8,1.6C92.7,373.7,93.8,373.7,94.2,373.8z"/>
	<path class="st8" d="M98,369c0.3,0.1,0.6,0.1,0.8,0.1c0.4-0.1,0.7-0.4,0.9-0.8c0.4-0.5,0.7-0.9,1-1.4c-0.9-0.2-1.8-0.3-2.6-0.5
		c-0.1,0-0.2,0-0.3,0c-0.3,0-0.5,0.3-0.6,0.5c-0.2,0.3-0.9,1.2-0.8,1.6C96.5,368.8,97.7,368.8,98,369z"/>
	<path class="st8" d="M90.7,368.4c0.3,0.1,0.6,0.1,0.8,0.1c0.4-0.1,0.7-0.4,0.9-0.8c0.4-0.5,0.7-0.9,1-1.4c-0.9-0.2-1.8-0.3-2.6-0.5
		c-0.1,0-0.2,0-0.3,0c-0.3,0-0.5,0.3-0.6,0.5c-0.2,0.3-0.9,1.2-0.8,1.6C89.2,368.2,90.3,368.2,90.7,368.4z"/>
	<path class="st8" d="M83.2,377.9c0.3,0.1,0.6,0.1,0.8,0.1c0.4-0.1,0.7-0.4,0.9-0.8c0.4-0.5,0.7-0.9,1-1.4c-0.9-0.2-1.8-0.3-2.6-0.5
		c-0.1,0-0.2,0-0.3,0c-0.3,0-0.5,0.3-0.6,0.5c-0.2,0.3-0.9,1.2-0.8,1.6C81.7,377.8,82.8,377.8,83.2,377.9z"/>
	<path class="st8" d="M89.9,378.2c0.3,0.1,0.6,0.1,0.8,0.1c0.4-0.1,0.7-0.4,0.9-0.8c0.4-0.5,0.7-0.9,1-1.4c-0.9-0.2-1.8-0.3-2.6-0.5
		c-0.1,0-0.2,0-0.3,0c-0.3,0-0.5,0.3-0.6,0.5c-0.2,0.3-0.9,1.2-0.8,1.6C88.5,378,89.6,378,89.9,378.2z"/>
	<path class="st8" d="M97.1,379.4c0.3,0.1,0.6,0.1,0.8,0.1c0.4-0.1,0.7-0.4,0.9-0.8c0.4-0.5,0.7-0.9,1-1.4c-0.9-0.2-1.8-0.3-2.6-0.5
		c-0.1,0-0.2,0-0.3,0c-0.3,0-0.5,0.3-0.6,0.5c-0.2,0.3-0.9,1.2-0.8,1.6C95.6,379.2,96.8,379.2,97.1,379.4z"/>
	<path class="st8" d="M100.8,374.4c0.3,0.1,0.6,0.1,0.8,0.1c0.4-0.1,0.7-0.4,0.9-0.8c0.4-0.5,0.7-0.9,1-1.4
		c-0.9-0.2-1.8-0.3-2.6-0.5c-0.1,0-0.2,0-0.3,0c-0.3,0-0.5,0.3-0.6,0.5c-0.2,0.3-0.9,1.2-0.8,1.6
		C99.4,374.3,100.5,374.3,100.8,374.4z"/>
	<path class="st8" d="M108,374.9c0.3,0.1,0.6,0.1,0.8,0.1c0.4-0.1,0.7-0.4,0.9-0.8c0.4-0.5,0.7-0.9,1-1.4c-0.9-0.2-1.8-0.3-2.6-0.5
		c-0.1,0-0.2,0-0.3,0c-0.3,0-0.5,0.3-0.6,0.5c-0.2,0.3-0.9,1.2-0.8,1.6C106.5,374.8,107.7,374.8,108,374.9z"/>
	<path class="st8" d="M103.6,379.7c0.3,0.1,0.6,0.1,0.8,0.1c0.4-0.1,0.7-0.4,0.9-0.8c0.4-0.5,0.7-0.9,1-1.4
		c-0.9-0.2-1.8-0.3-2.6-0.5c-0.1,0-0.2,0-0.3,0c-0.3,0-0.5,0.3-0.6,0.5c-0.2,0.3-0.9,1.2-0.8,1.6
		C102.1,379.5,103.3,379.5,103.6,379.7z"/>
	<path class="st8" d="M111.1,380.5c0.3,0.1,0.6,0.1,0.8,0.1c0.4-0.1,0.7-0.4,0.9-0.8c0.4-0.5,0.7-0.9,1-1.4
		c-0.9-0.2-1.8-0.3-2.6-0.5c-0.1,0-0.2,0-0.3,0c-0.3,0-0.5,0.3-0.6,0.5c-0.2,0.3-0.9,1.2-0.8,1.6
		C109.6,380.3,110.8,380.3,111.1,380.5z"/>
	<path class="st8" d="M114.9,375.4c0.3,0.1,0.6,0.1,0.8,0.1c0.4-0.1,0.7-0.4,0.9-0.8c0.4-0.5,0.7-0.9,1-1.4
		c-0.9-0.2-1.8-0.3-2.6-0.5c-0.1,0-0.2,0-0.3,0c-0.3,0-0.5,0.3-0.6,0.5c-0.2,0.3-0.9,1.2-0.8,1.6
		C113.5,375.3,114.6,375.3,114.9,375.4z"/>
	<path class="st8" d="M119.2,370.6c0.3,0.1,0.6,0.1,0.8,0.1c0.4-0.1,0.7-0.4,0.9-0.8c0.4-0.5,0.7-0.9,1-1.4
		c-0.9-0.2-1.8-0.3-2.6-0.5c-0.1,0-0.2,0-0.3,0c-0.3,0-0.5,0.3-0.6,0.5c-0.2,0.3-0.9,1.2-0.8,1.6
		C117.7,370.5,118.8,370.5,119.2,370.6z"/>
	<path class="st8" d="M125.7,371.3c0.3,0.1,0.6,0.1,0.8,0.1c0.4-0.1,0.7-0.4,0.9-0.8c0.4-0.5,0.7-0.9,1-1.4
		c-0.9-0.2-1.8-0.3-2.6-0.5c-0.1,0-0.2,0-0.3,0c-0.3,0-0.5,0.3-0.6,0.5c-0.2,0.3-0.9,1.2-0.8,1.6
		C124.2,371.2,125.3,371.2,125.7,371.3z"/>
	<path class="st8" d="M122.2,376.1c0.3,0.1,0.6,0.1,0.8,0.1c0.4-0.1,0.7-0.4,0.9-0.8c0.4-0.5,0.7-0.9,1-1.4
		c-0.9-0.2-1.8-0.3-2.6-0.5c-0.1,0-0.2,0-0.3,0c-0.3,0-0.5,0.3-0.6,0.5c-0.2,0.3-0.9,1.2-0.8,1.6C120.7,376,121.8,376,122.2,376.1z"
		/>
	<path class="st8" d="M117.8,381c0.3,0.1,0.6,0.1,0.8,0.1c0.4-0.1,0.7-0.4,0.9-0.8c0.4-0.5,0.7-0.9,1-1.4c-0.9-0.2-1.8-0.3-2.6-0.5
		c-0.1,0-0.2,0-0.3,0c-0.3,0-0.5,0.3-0.6,0.5c-0.2,0.3-0.9,1.2-0.8,1.6C116.4,380.8,117.5,380.8,117.8,381z"/>
	<path class="st8" d="M124.7,381.7c0.3,0.1,0.6,0.1,0.8,0.1c0.4-0.1,0.7-0.4,0.9-0.8c0.4-0.5,0.7-0.9,1-1.4
		c-0.9-0.2-1.8-0.3-2.6-0.5c-0.1,0-0.2,0-0.3,0c-0.3,0-0.5,0.3-0.6,0.5c-0.2,0.3-0.9,1.2-0.8,1.6
		C123.3,381.5,124.4,381.5,124.7,381.7z"/>
	<path class="st8" d="M128.5,377.1c0.3,0.1,0.6,0.1,0.8,0.1c0.4-0.1,0.7-0.4,0.9-0.8c0.4-0.5,0.7-0.9,1-1.4
		c-0.9-0.2-1.8-0.3-2.6-0.5c-0.1,0-0.2,0-0.3,0c-0.3,0-0.5,0.3-0.6,0.5c-0.2,0.3-0.9,1.2-0.8,1.6
		C127.1,376.9,128.2,376.9,128.5,377.1z"/>
	<path class="st8" d="M133.2,371.9c0.3,0.1,0.6,0.1,0.8,0.1c0.4-0.1,0.7-0.4,0.9-0.8c0.4-0.5,0.7-0.9,1-1.4
		c-0.9-0.2-1.8-0.3-2.6-0.5c-0.1,0-0.2,0-0.3,0c-0.3,0-0.5,0.3-0.6,0.5c-0.2,0.3-0.9,1.2-0.8,1.6
		C131.7,371.8,132.8,371.8,133.2,371.9z"/>
	<path class="st8" d="M111.8,369.9c0.3,0.1,0.6,0.1,0.8,0.1c0.4-0.1,0.7-0.4,0.9-0.8c0.4-0.5,0.7-0.9,1-1.4
		c-0.9-0.2-1.8-0.3-2.6-0.5c-0.1,0-0.2,0-0.3,0c-0.3,0-0.5,0.3-0.6,0.5c-0.2,0.3-0.9,1.2-0.8,1.6
		C110.4,369.8,111.5,369.8,111.8,369.9z"/>
	<path class="st8" d="M105,369.8c0.3,0.1,0.6,0.1,0.8,0.1c0.4-0.1,0.7-0.4,0.9-0.8c0.4-0.5,0.7-0.9,1-1.4c-0.9-0.2-1.8-0.3-2.6-0.5
		c-0.1,0-0.2,0-0.3,0c-0.3,0-0.5,0.3-0.6,0.5c-0.2,0.3-0.9,1.2-0.8,1.6C103.5,369.6,104.7,369.6,105,369.8z"/>
	<path class="st8" d="M83.5,367.8c0.3,0.1,0.6,0.1,0.8,0.1c0.4-0.1,0.7-0.4,0.9-0.8c0.4-0.5,0.7-0.9,1-1.4c-0.9-0.2-1.8-0.3-2.6-0.5
		c-0.1,0-0.2,0-0.3,0c-0.3,0-0.5,0.3-0.6,0.5c-0.2,0.3-0.9,1.2-0.8,1.6C82.1,367.7,83.2,367.7,83.5,367.8z"/>
	<path class="st8" d="M76.3,376.8c0.3,0.1,0.6,0.1,0.8,0.1c0.4-0.1,0.7-0.4,0.9-0.8c0.4-0.5,0.7-0.9,1-1.4c-0.9-0.2-1.8-0.3-2.6-0.5
		c-0.1,0-0.2,0-0.3,0c-0.3,0-0.5,0.3-0.6,0.5c-0.2,0.3-0.9,1.2-0.8,1.6C74.8,376.6,76,376.6,76.3,376.8z"/>
	<path class="st8" d="M69.5,376.1c0.3,0.1,0.6,0.1,0.8,0.1c0.4-0.1,0.7-0.4,0.9-0.8c0.4-0.5,0.7-0.9,1-1.4c-0.9-0.2-1.8-0.3-2.6-0.5
		c-0.1,0-0.2,0-0.3,0c-0.3,0-0.5,0.3-0.6,0.5c-0.2,0.3-0.9,1.2-0.8,1.6C68.1,375.9,69.2,375.9,69.5,376.1z"/>
	<path class="st8" d="M62.7,374.9c0.3,0.1,0.6,0.1,0.8,0.1c0.4-0.1,0.7-0.4,0.9-0.8c0.4-0.5,0.7-0.9,1-1.4c-0.9-0.2-1.8-0.3-2.6-0.5
		c-0.1,0-0.2,0-0.3,0c-0.3,0-0.5,0.3-0.6,0.5c-0.2,0.3-0.9,1.2-0.8,1.6C61.2,374.8,62.3,374.8,62.7,374.9z"/>
</g>
<g>
	<path class="st2" d="M434,145.3"/>
	<path class="st0" d="M497.6,163.5l-0.1-0.1c2.6-3.4,5.3-6.8,7.9-10.3c-0.4-1.4-11.7-9.8-16.2-13.1c-1.6,1.1-23,25.7-33.4,40.2
		l-0.2-0.1c0,0,0.1,0.1,0.1,0.1c-3.9,5.4-6.2,9.4-5.4,10.2c3.7,4,9,7.1,13.6,9.9c0.5,0.3,1,0.6,1.5,0.6c1,0,1.8-0.8,2.4-1.5
		c4.7-5.5,9.4-11,14-16.6c0,0,0,0,0,0l0,0c2.7-3.3,5.4-6.6,8.1-10c0,0,0.1,0.1,0.1,0.1l-0.1-0.1c2.5-3.1,5-6.3,7.4-9.4
		C497.6,163.5,497.6,163.5,497.6,163.5z"/>
	<g>
		<g>
			<path class="st2" d="M461.8,195.3c0.5,0.3,1,0.6,1.5,0.6c1,0,1.8-0.8,2.4-1.5c13-15,25.5-30.4,37.4-46.3
				c-0.4-1.4-11.7-9.8-16.2-13.1c-2.2,1.5-41.7,47.3-38.8,50.4C451.9,189.3,457.2,192.5,461.8,195.3z"/>
			<path class="st4" d="M471.3,187c-6-3.9-12-7.9-17.8-12"/>
			<path class="st4" d="M461.7,164.6c5.8,4.6,11.8,9,18,13.1"/>
			<path class="st4" d="M470.3,154c5.6,5.1,11.4,9.6,17.6,13.9"/>
			<path class="st4" d="M478.1,144.8c5.6,5.1,11,9.4,17.3,13.6"/>
			<path class="st4" d="M487.4,144.5c0.2,0.4,0.6,0.8,1.1,0.9c0.7,0.2,1.4-0.4,1.9-1c0.1-0.1,0.2-0.3,0.2-0.5c0.1-0.3,0-0.6-0.2-0.8
				C489.3,141.2,486.1,142.1,487.4,144.5z"/>
		</g>
		<path class="st9" d="M477.5,158.5c1.4,1.1,2.7,2.3,4.1,3.4c0.9,0.8,5.7,4.3,5.7,4.3s3-3.5,4.1-5c0.2-0.3,1.9-2.9,2.4-2.6
			c-5.4-3.6-10.7-7.6-15.6-12c-1.1,1.2-2.2,2.4-3.2,3.6c-1,1.1-2.3,2.3-3,3.6C473.7,155.5,475.7,157,477.5,158.5z"/>
		<path class="st10" d="M469.1,168.6c1.4,1.1,3,2.1,4.4,3.2c0.9,0.8,5.7,4.3,5.7,4.3s3-3.5,4.1-5c0.2-0.3,2.3-3.2,2.8-2.9
			c-5.4-3.6-10.8-8-15.7-12.3c-1.1,1.2-2.4,3-3.5,4.3c-1,1.1-2.7,2.9-3.4,4.2C465.2,166,467.3,167.1,469.1,168.6z"/>
		<path class="st11" d="M460.8,179.1c1.4,1.1,3.1,1.9,4.5,3c1,0.7,6,4,6,4s2.9-3.6,3.9-5.2c0.2-0.3,2.1-2.5,2.5-3.2
			c-5.6-3.3-11.2-7.3-16.4-11.4c-1,1.2-2.2,3.2-3.2,4.4c-0.9,1.2-2.5,3-3.1,4.3C456.8,176.7,458.9,177.7,460.8,179.1z"/>
		<path class="st12" d="M453.6,188.9c1.4,1,3,1.9,4.4,2.9c0.5,0.4,2.2,1.5,3.6,2.5c1.2,0.8,2.9,0.6,3.7-0.5c0.8-1,1.6-2.1,2.1-2.9
			c0.2-0.3,2-2.3,2.3-3c-5.4-3.3-10.8-7.2-15.8-11.2c-1,1.2-2.1,3-3,4.2c-0.1,0.2-0.3,0.4-0.4,0.6c-1.5,1.9-1,4.8,1.2,6.1
			C452.3,188,452.9,188.4,453.6,188.9z"/>
	</g>
	<path class="st13" d="M488,164.2l-0.1-0.1c3.8-2.1,7.6-4.1,11.3-6.3c0.2-1.4-6.8-13.7-9.5-18.5c-1.9,0.4-31.4,14.4-46.7,23.5
		l-0.1-0.2c0,0.1,0.1,0.1,0.1,0.2c-5.7,3.4-9.4,6.1-9,7.2c1.8,5.1,5.4,10.1,8.5,14.5c0.3,0.5,0.7,0.9,1.2,1.2c0.9,0.4,1.9,0,2.8-0.4
		c6.5-3.1,13-6.4,19.5-9.6c0,0,0,0,0,0l0,0c3.8-1.9,7.6-3.9,11.4-5.9c0,0,0,0.1,0.1,0.1l-0.1-0.1c3.5-1.9,7.1-3.7,10.6-5.7
		C487.9,164.1,488,164.1,488,164.2z"/>
	<g>
		<g>
			<path class="st2" d="M437.5,180.5c0.3,0.5,0.7,0.9,1.2,1.2c0.9,0.4,1.9,0,2.8-0.4c17.9-8.6,35.5-17.7,52.8-27.5
				c0.2-1.4-6.8-13.7-9.5-18.5c-2.6,0.5-57.1,26.7-55.7,30.7C430.8,171.1,434.4,176.2,437.5,180.5z"/>
			<path class="st4" d="M449.5,176.8c-4-6-7.8-12-11.5-18.1"/>
			<path class="st4" d="M449.7,152.4c3.5,6.6,7.3,13,11.3,19.3"/>
			<path class="st4" d="M461.8,146.1c3.1,6.9,6.6,13.4,10.6,19.8"/>
			<path class="st4" d="M472.6,140.8c3.1,6.9,6.3,13,10.4,19.4"/>
			<path class="st4" d="M481.3,144.3c0,0.5,0.2,1,0.6,1.3c0.6,0.5,1.5,0.2,2.1-0.2c0.1-0.1,0.3-0.2,0.4-0.3c0.2-0.2,0.2-0.5,0.2-0.8
				C484.3,141.9,481,141.5,481.3,144.3z"/>
		</g>
		<path class="st14" d="M466.6,153.1c0.8,1.6,1.6,3.2,2.4,4.8c0.5,1.1,3.5,6.2,3.5,6.2s4.1-2,5.8-3c0.3-0.2,2.9-1.9,3.3-1.4
			c-3.5-5.5-6.7-11.3-9.5-17.2c-1.5,0.6-3,1.3-4.4,2c-1.3,0.6-3,1.2-4.2,2.1C464.3,148.9,465.6,151,466.6,153.1z"/>
		<path class="st15" d="M454.9,159.1c0.8,1.6,1.9,3.1,2.7,4.7c0.5,1.1,3.5,6.2,3.5,6.2s4.1-2,5.8-3c0.3-0.2,3.4-2.1,3.7-1.5
			c-3.5-5.5-6.7-11.6-9.5-17.5c-1.5,0.6-3.4,1.8-4.9,2.5c-1.3,0.6-3.6,1.6-4.8,2.5C452.3,155.1,453.8,156.9,454.9,159.1z"/>
		<path class="st16" d="M443.1,165.4c0.9,1.5,2.1,3,3,4.5c0.6,1,3.9,6,3.9,6s4.1-2.1,5.7-3.1c0.3-0.2,2.9-1.4,3.5-1.9
			c-3.8-5.3-7.4-11.2-10.5-17c-1.4,0.7-3.3,2-4.7,2.8c-1.3,0.7-3.5,1.8-4.6,2.7C440.3,161.5,441.9,163.3,443.1,165.4z"/>
		<path class="st17" d="M432.5,171.4c0.8,1.5,2,2.9,2.8,4.4c0.3,0.6,1.4,2.3,2.3,3.7c0.8,1.3,2.4,1.7,3.6,1c1.1-0.6,2.3-1.3,3.1-1.8
			c0.3-0.2,2.7-1.4,3.3-1.8c-3.7-5.2-7-10.9-10-16.5c-1.3,0.7-3.1,1.9-4.4,2.6c-0.2,0.1-0.4,0.2-0.6,0.3c-2.1,1.1-2.8,4-1.4,6
			C431.7,170.1,432.1,170.7,432.5,171.4z"/>
	</g>
	<path class="st18" d="M485.5,139.6c-1.9-0.1-33.9,6.4-50.9,11.6l-0.1-0.2c0,0.1,0,0.1,0.1,0.2c-6.3,1.9-10.6,3.7-10.5,4.8
		c0.5,5.4,2.8,11.1,4.8,16.1c0.2,0.5,0.4,1.1,0.9,1.4c0.8,0.6,1.9,0.5,2.8,0.3c7.1-1.5,14.2-3,21.2-4.6c0,0,0,0,0,0l0,0
		c4.2-1,8.3-2,12.5-3c0,0,0,0.1,0,0.1l0-0.1c3.9-1,7.8-1.9,11.6-3c0,0,0,0.1,0,0.1l0-0.1c4.2-1.1,8.3-2.2,12.5-3.4
		C490.9,158.5,487,144.9,485.5,139.6z"/>
	<g>
		<g>
			<path class="st2" d="M428.8,167.6c0.2,0.5,0.4,1.1,0.9,1.4c0.8,0.6,1.9,0.5,2.8,0.3c19.4-4,38.7-8.7,57.8-14
				c0.5-1.3-3.3-14.9-4.8-20.3c-2.7-0.1-61.9,12.1-61.5,16.4C424.6,156.8,426.9,162.6,428.8,167.6z"/>
			<path class="st4" d="M441.4,166.8c-2.4-6.7-4.7-13.5-6.8-20.4"/>
			<path class="st4" d="M447.4,143.2c1.8,7.2,3.9,14.4,6.3,21.4"/>
			<path class="st4" d="M460.7,140c1.3,7.4,3.2,14.6,5.6,21.7"/>
			<path class="st4" d="M472.5,137.4c1.3,7.4,3,14.2,5.4,21.3"/>
			<path class="st4" d="M480,142.9c-0.1,0.5,0,1,0.3,1.4c0.5,0.6,1.4,0.5,2.1,0.3c0.2-0.1,0.3-0.1,0.5-0.2c0.2-0.2,0.3-0.5,0.4-0.7
				C483.5,141.4,480.5,140.2,480,142.9z"/>
		</g>
		<path class="st19" d="M463.7,148c0.4,1.7,0.8,3.5,1.1,5.2c0.3,1.2,1.9,6.9,1.9,6.9s4.5-1,6.3-1.5c0.4-0.1,3.3-1.1,3.5-0.6
			c-2.1-6.2-3.8-12.5-5.1-19c-1.6,0.3-3.2,0.6-4.8,0.9c-1.4,0.3-3.2,0.4-4.6,1C462.4,143.3,463.2,145.7,463.7,148z"/>
		<path class="st20" d="M450.8,150.9c0.4,1.7,1.1,3.5,1.5,5.2c0.3,1.2,1.9,6.9,1.9,6.9s4.5-1,6.3-1.5c0.4-0.1,3.8-1.2,4-0.6
			c-2.1-6.2-3.7-12.9-5-19.3c-1.6,0.3-3.8,0.9-5.4,1.3c-1.4,0.3-3.9,0.7-5.2,1.2C449.3,146.4,450.3,148.6,450.8,150.9z"/>
		<path class="st21" d="M437.9,154.2c0.5,1.7,1.3,3.4,1.8,5.1c0.3,1.2,2.3,6.8,2.3,6.8s4.5-1.1,6.3-1.7c0.4-0.1,3.2-0.7,3.9-1
			c-2.5-6.1-4.4-12.7-6.1-19c-1.6,0.4-3.7,1.1-5.3,1.6c-1.4,0.4-3.8,0.9-5.1,1.5C436.1,149.8,437.2,151.9,437.9,154.2z"/>
		<path class="st22" d="M426.2,157.5c0.4,1.7,1.2,3.3,1.7,5c0.2,0.6,0.8,2.5,1.3,4.1c0.5,1.4,1.9,2.2,3.3,1.8c1.2-0.3,2.6-0.7,3.4-1
			c0.3-0.1,3-0.7,3.6-1c-2.3-5.9-4.2-12.3-5.7-18.5c-1.5,0.3-3.5,1.1-4.9,1.5c-0.2,0.1-0.4,0.1-0.7,0.2c-2.3,0.6-3.7,3.2-2.8,5.5
			C425.7,156,425.9,156.7,426.2,157.5z"/>
	</g>
</g>
<g>
	<path class="st0" d="M94.9,149.9c-1-0.9-2.1-1.6-3.4-2.2c-0.8-0.4-1.7-0.7-2.6-0.9c-0.5-0.2-1.1-0.3-1.6-0.5
		c-1.5-0.4-3-0.7-4.5-0.9c-0.1,0-0.1,0-0.2,0c-3.6-0.6-7.2-0.9-10.8-0.8c-1.8,0-3.6,0.1-5.4,0.3c-1,0.1-1.9,0.2-2.9,0.4
		c-2,0.3-6.1,0.9-9.6,2.2c-4,1.4-7,3.7-4.8,7.2c-0.1,2.1,0.9,5.4,1,6.8c0.3,2.7,0.6,5.5,0.8,8.2c0.6,6,1.2,12.1,1.8,18.1
		c0.4,3.5,0.9,7.4,3.5,9.8c1.5,1.4,3.6,2,5.6,2.5c8.6,2.1,17.8,1.9,26.3-0.5c1.4-0.4,2.8-0.9,3.9-1.8c2.2-1.9,2.5-5.1,2.6-8
		c0.5-10.8,1.1-21.6,1.6-32.4c0,0,0,0,0,0C97.8,154.9,96.9,151.8,94.9,149.9z"/>
	<path class="st23" d="M47.9,184.8c0.4,3.5,0.9,7.4,3.5,9.8c1.5,1.4,3.6,2,5.6,2.5c8.6,2.1,17.8,1.9,26.3-0.5
		c1.4-0.4,2.8-0.9,3.9-1.8c2.2-1.9,2.5-5.1,2.6-8c0.6-11.1,1.1-22.2,1.7-33.3c-10.9-1.5-21.9-2.6-32.8-3.3c-2.7-0.2-13-2.1-14.2,0.4
		c-0.7,1.6,0.6,6.2,0.8,8c0.3,2.7,0.6,5.5,0.8,8.2C46.7,172.7,47.3,178.7,47.9,184.8z"/>
	<path class="st24" d="M91.5,154.2c-1.6,2.7-5.3,3.3-8.6,3.5c-0.2,0-0.4,0-0.6,0c-1.1,0.1-2.2,0.1-3.4,0.2l-0.6,0
		c-2.1,0.1-4.1,0.2-6.2,0.2c-1.2,0-2.4,0-3.5,0c-1.6,0-3.1-0.1-4.6-0.2h0c-4.5-0.3-8.9-1-13.1-2.3c-0.2-0.1-0.4-0.1-0.6-0.2
		c-2.1-0.7-4.2-1.5-5.5-3.2c-3.1-3.9,0.1-6.3,4.3-7.8c3.5-1.2,7.7-1.9,9.6-2.2c1-0.1,1.9-0.3,2.9-0.4c1.8-0.2,3.6-0.3,5.4-0.3
		c3.6-0.1,7.3,0.2,10.8,0.8c0.1,0,0.1,0,0.2,0c1.5,0.2,3,0.6,4.5,0.9c0.5,0.1,1.1,0.3,1.6,0.5c0.9,0.3,1.8,0.6,2.6,0.9
		c1.2,0.6,2.4,1.3,3.4,2.2C91.9,148.8,92.8,151.9,91.5,154.2z"/>
	<g>
		<path class="st25" d="M76.4,158c-2.1,0.1-4.1,0.2-6.2,0.2c-1.2,0-2.3,0-3.5,0c-0.4-2.7-0.7-5.5-1-8.2c-0.3-2.8-0.5-5.6-0.8-8.4
			c-0.4-4.9-0.9-9.8-1.6-14.6c-0.3-1.9-0.6-3.8-0.9-5.6c-0.2-1-0.6-4-0.1-4.8c1.1-1.7,7.4-1.4,9.2-1.4c0.2,0,0.5,0,0.6,0.1
			c0.2,0.1,0.2,0.4,0.2,0.5c1.6,8.8,2.7,17.7,3.3,26.6c0,0.1,0,0.3,0,0.4C76.2,147.8,76.4,152.9,76.4,158z"/>
		<path class="st26" d="M65.9,114.7c-0.3-1.7-0.6-3.4-0.9-5.1c-1.2,0.1-2.6,0.1-3.5-0.7c-0.2-0.2-0.3-0.4-0.3-0.7c0-0.5,0.5-0.8,1-1
			c3-1.2,6.3-1.3,9.5-1.5c0.4,0,0.8,0,1.1,0.1c0.4,0.1,0.7,0.5,0.6,0.9c0,0.4-0.4,0.7-0.7,0.9c-1.2,0.8-2.5,1.3-3.9,1.4
			c-0.2,2-0.1,4,0.3,6"/>
		<path class="st4" d="M63.2,123.2c3.4,0,6.8-0.2,10.2-0.5"/>
		<path class="st26" d="M73.2,117.2c0.7-0.5,1.8-0.3,2.5,0.4c0.6,0.6,0.9,1.6,1.1,2.4c0.3,1.3,0.5,2.5,0.8,3.8
			c0.5,2.6,1,5.3,1.4,7.9c0.1,0.5,0,1.2-0.5,1.3c-0.4,0-0.7-0.4-0.8-0.7c-1.5-3.3-1.6-7.1-2.6-10.5c-0.3-0.9-0.7-1.8-1.6-2.1"/>
		<path class="st27" d="M67.6,144.8c0.5,4,1.1,8,2.7,11.6c0.6-1.6,0.4-3.3,0.3-5c-0.5-5.8-1-11.5-2-17.2c-0.2-1.2-0.7-7-2.2-6.9
			c-1.9,0.2-0.3,5.8-0.2,7C66.6,137.8,67.1,141.3,67.6,144.8z"/>
	</g>
	<path class="st28" d="M78.8,157.9c1.1-0.1,2.3-0.1,3.4-0.2c0.2,0,0.4,0,0.6,0c0.4-1.6,0.9-3.1,0.9-3.4c0.7-2.4,1.4-4.9,2.1-7.3
		c0.2-0.8,0.4-1.5,0.6-2.3c1.1-4.2,2.1-8.4,3-12.7c0.2-0.9,1-2.9,0.8-3.7c-0.1-0.2-0.2-0.4-0.4-0.5c-0.6-0.6-1.9-1-2.5-1.2
		c-1.8-0.4-2.8,0.6-3.5,2.1c-2.3,4.3-4.1,9-5.9,13.6c0,0.1-0.1,0.2-0.1,0.3c0,0,0,0.1,0,0.1c-2,5.1-3.9,10.2-5.6,15.4
		c2.1,0,4.1-0.1,6.2-0.2L78.8,157.9z"/>
	<path class="st29" d="M89.1,132c-0.9,4.2-1.9,8.5-3,12.7c-0.2,0.8-0.4,1.6-0.6,2.3c-0.7,2.5-1.4,4.9-2.1,7.3
		c-0.1,0.3-0.3,1.3-0.8,2.8c-0.2,0-2.8,0-3.9,0.1c0.9-2.4,1.6-4.2,2.5-6.7c0.8-2.3,1.6-4.5,2.3-6.8c1-3.1,1.9-6.3,2.5-9.5
		c0.3-1.5,0.1-4.3,1.1-5.5c0.6-0.8,1.4-1,2.3-0.9c0.2,0.1,0.3,0.3,0.4,0.5C90.1,129.2,89.3,131.2,89.1,132z"/>
	<path class="st2" d="M89.8,111.6c-1.8,1.3-3.6,2.7-5,4.4c-1.5,1.7-2.6,3.7-2.8,6c-0.1,1,0,2.1,0.2,3.1c0.2,1.1,0.4,2.2,1,3.1
		c1.7,3.2,6.1,4.5,9.5,3.2c3.4-1.3,5.7-4.8,6.2-8.4c0.2-1.7,0.1-3.3,0-5c-0.2-2.1-0.3-4.2-0.5-6.3c-0.1-1.9,0-4.3-0.5-6.1
		C95,107.1,92.3,109.7,89.8,111.6z"/>
	<path class="st30" d="M58.3,119.9c-2,1-4.1,1.9-6.3,2.1c-2.2,0.2-4.5-0.3-6.3-1.8c0.7-3.4,1.4-6.8,2.1-10.1
		c0.3-1.2,0.5-2.3,0.8-3.5c0.4-1.7,0.9-3.5,1.3-5.2c0.3-1.3,0.4-2.5,1.4-1.3c0.7,0.8,1.2,2.7,1.6,3.8c0.1,0.3,0.4,1.2,0.9,2.4
		C55.5,110.6,58.7,119.7,58.3,119.9z"/>
	<path class="st31" d="M63.9,157.9c-4.5-0.3-8.9-1-13.1-2.3c-0.5-3.1-1-6.1-1.5-9.2c-0.1-0.6-0.2-1.3-0.3-2
		c-1.1-7.2-2.5-17.1-3.4-23.7c-0.4-2.7,0.2-0.6,3.1-0.7c0.8,0,9.8-0.1,9.9,0c1.1,7.3,2,14.6,3,21.8c0.6,4.2,1.2,8.5,1.9,12.7
		C63.5,155.7,63.8,156.8,63.9,157.9z"/>
	<path class="st32" d="M81.4,174.1c0.1,3.3-0.1,6.7-2,9.4c-2.7,3.8-7.7,4.8-12.2,6c-1.4,0.4-3.1,1.3-2.8,2.7
		c0.3,1.1,1.7,1.5,2.9,1.6c3,0.3,6.1,0.5,9-0.2c3-0.6,5.8-2.1,7.6-4.6c1.4-1.9,1.9-4.3,2.3-6.6c0.9-5.3,1-10.6,1.1-15.9
		c0-3-2.6-5.1-5.2-2.6C80,166.2,81.2,171.3,81.4,174.1z"/>
	<path class="st4" d="M96.5,106.7c-0.8,1-1.5,2-2.2,3c-0.7,1.1-1.3,2.2-1.9,3.3c-1.2,2.2-2.4,4.4-3.6,6.5"/>
	<path class="st4" d="M96.9,121.3c-0.1-2.6-0.2-5.2-0.2-7.8c0-1.3,0-2.6,0-3.9c0-1,0.2-2.1,0.1-3.1c-0.7,0.9-1.1,2.3-1.5,3.4
		c-0.5,1.2-0.9,2.4-1.3,3.6c-0.8,2.5-1.4,5-1.9,7.5"/>
	<path class="st33" d="M53.9,106.2c-0.1,0.1-0.1,0.1-0.2,0.1c-0.6,0.4-1.3,0.7-2,0.9c-1.2,0.3-2.2,0-3-0.7c0.4-1.7,0.9-3.5,1.3-5.2
		c0.3-1.3,0.4-2.5,1.4-1.3c0.7,0.8,1.2,2.7,1.6,3.8C53.1,104.1,53.5,105,53.9,106.2z"/>
	<path class="st34" d="M52.6,145.1c0.6,2.9,1.4,6,3.4,7.6c0.5-0.3,0.5-1.3,0.5-2c-0.3-4.6-0.9-9.2-1.8-13.7
		c-0.5-2.6-1.6-11.2-3.5-12.8c-3.4-2.9-1.8,4.6-1.6,6.1C50.6,135.3,51.5,140.2,52.6,145.1z"/>
	<path class="st35" d="M71.4,161.9c0.7-0.1,1.3-0.2,2,0c1.3,0.5,1.5,2.4,0.7,3.6c-0.8,1.1-2.2,1.7-3.6,2.1
		c-4.1,1.2-8.5,1.8-12.8,1.6c-2.5-0.1-5.2-0.5-7.2-2c-1.5-1.1-3.5-3.8-2-5.5c1.5-1.8,4.8-0.1,6.5,0.3
		C60.4,163.2,66,162.9,71.4,161.9z"/>
</g>
<g>
	<path class="st0" d="M424.3,375.1c-2.1,4.2-5.4,7.7-8.9,10.9c-1.9,1.7-3.9,3.3-5.9,4.9c-0.7,0.6-1.5,1.1-2.3,1.6
		c-2.8,1.5-6.3,0.9-9.2-0.2c-1.6-0.6-3.6-1.7-4.3-3.3c-0.7-1.7-0.4-3.6,0.3-5.2c1.1-2.9,3-5.4,5.1-7.8c0.5-0.5,0.9-1,1.4-1.6
		c1.8-1.9,3.6-3.8,5.7-5.4c3.4-2.7,7.6-3.9,11.9-3.7c2.8,0.1,6.8,1.2,7.4,4.4C425.9,371.6,425.2,373.4,424.3,375.1z"/>
	<g>
		<path class="st29" d="M400.1,390.6c-1.7,0-3.5-0.4-5.4-1.1c-2.4-1-3.9-2.1-4.6-3.6c-0.7-1.5-0.6-3.4,0.3-5.6
			c1.3-3.3,3.4-5.9,5.2-7.9c0.5-0.5,0.9-1,1.4-1.6c1.5-1.6,3.5-3.7,5.8-5.5c3.2-2.5,7.1-3.8,11.3-3.8c0.3,0,0.6,0,0.9,0
			c3.2,0.1,7.3,1.5,7.9,4.8c0.4,2.1-0.5,4.3-1.2,5.7c-1.9,3.7-4.8,7.3-9,11c-1.9,1.7-3.9,3.3-6,4.9c-0.8,0.6-1.5,1.2-2.4,1.6
			C403,390.3,401.6,390.6,400.1,390.6z"/>
		<path class="st33" d="M414,362.1c0.3,0,0.6,0,0.9,0c2.8,0.1,6.8,1.2,7.4,4.4c0.3,1.8-0.3,3.7-1.2,5.4c-2.1,4.2-5.4,7.7-8.9,10.9
			c-1.9,1.7-3.9,3.3-5.9,4.9c-0.7,0.6-1.5,1.1-2.3,1.6c-1.2,0.6-2.6,0.9-3.9,0.9c-1.8,0-3.6-0.5-5.2-1.1c-1.6-0.6-3.6-1.7-4.3-3.3
			c-0.7-1.7-0.4-3.6,0.3-5.2c1.1-2.9,3-5.4,5.1-7.8c0.5-0.5,0.9-1,1.4-1.6c1.8-1.9,3.6-3.8,5.7-5.4C406.2,363.3,410,362.1,414,362.1
			 M414,361.1C414,361.1,414,361.1,414,361.1c-4.3,0-8.3,1.4-11.6,3.9c-2.3,1.8-4.3,3.9-5.8,5.5c-0.5,0.5-1,1.1-1.4,1.6
			c-1.8,2-4,4.7-5.3,8.1c-0.9,2.3-1,4.3-0.3,5.9c0.7,1.6,2.3,2.9,4.8,3.9c2,0.8,3.9,1.2,5.6,1.2c1.6,0,3.1-0.3,4.4-1
			c0.9-0.5,1.7-1.1,2.4-1.7c2.1-1.6,4.1-3.2,6-4.9c4.3-3.8,7.2-7.4,9.2-11.2c0.7-1.5,1.7-3.7,1.3-6c-0.7-3.6-4.9-5.1-8.4-5.2
			C414.6,361.1,414.3,361.1,414,361.1L414,361.1z"/>
	</g>
	<path class="st4" d="M397.5,371.4c3.6,1,7.3,2,10.7,3.7c1,0.5,2,1,2.5,2c0.3,0.5,0.5,1.2,0.7,1.8c0.3,1.3,0.6,2.5,0.9,3.8"/>
	<g>
		<path class="st36" d="M400.1,390.6c-1.7,0-3.5-0.4-5.4-1.1c-2.4-1-3.9-2.1-4.6-3.6c-0.7-1.5-0.6-3.4,0.3-5.6
			c1.3-3.3,3.4-5.9,5.2-7.9c0.5-0.5,0.9-1,1.4-1.6l0.2-0.2l2.5,0.9l9.1,3.3l0.2,0.1l2.6,2.3l0.9,4.4l0.2,1l0.1,0.3l-0.2,0.3
			c-1.9,1.7-3.9,3.3-6,4.9c-0.8,0.6-1.5,1.2-2.4,1.6C403,390.3,401.6,390.6,400.1,390.6z"/>
		<path class="st33" d="M397.3,371.2l2.2,0.8l8.8,3.2l0.2,0.1l0.1,0.1l1.9,1.7l0.2,0.2l0.3,0.3l0.5,2.4l0.4,1.8l0.2,0.8l0,0.1l0,0.1
			c-1.9,1.7-3.9,3.3-5.9,4.9c-0.7,0.6-1.5,1.1-2.3,1.6c-1.2,0.6-2.6,0.9-3.9,0.9c-1.8,0-3.6-0.5-5.2-1.1c-1.6-0.6-3.6-1.7-4.3-3.3
			c-0.7-1.7-0.4-3.6,0.3-5.2c1.1-2.9,3-5.4,5.1-7.8C396.3,372.2,396.8,371.7,397.3,371.2 M397,370l-0.5,0.5l0.7,0.7l-0.7-0.7
			c-0.5,0.5-0.9,1-1.4,1.6c-1.8,2-4,4.7-5.3,8.1c-0.9,2.3-1,4.3-0.3,5.9c0.7,1.6,2.3,2.9,4.8,3.9c2,0.8,3.9,1.2,5.6,1.2
			c1.6,0,3.1-0.3,4.4-1c0.9-0.5,1.7-1.1,2.4-1.7c2.1-1.6,4.1-3.2,6-4.9l0.5-0.4l-0.2-0.6l0,0l0-0.1l-0.2-0.9l-0.4-1.7l-0.5-2.4
			L412,377l-0.3-0.2l-0.3-0.3l-0.2-0.2l-1.9-1.7l-0.1-0.1l-0.1-0.1l-0.2-0.1l-0.2-0.1l-8.8-3.2l-2.2-0.8L397,370L397,370z"/>
	</g>
	<path class="st4" d="M418.5,367.2c-0.3,0.8-0.9,1.5-1.4,2.3c-2.2,3-4.7,5.8-7.3,8.4c-3.2,3.2-7.4,8.3-12.2,8.7
		c-1.3,0.1-2.5-0.2-3.7-0.5"/>
</g>
</svg>
