<?xml version="1.0" encoding="utf-8"?>
<!-- Generator: Adobe Illustrator 27.0.1, SVG Export Plug-In . SVG Version: 6.00 Build 0)  -->
<svg version="1.1" id="Layer_1" xmlns="http://www.w3.org/2000/svg" xmlns:xlink="http://www.w3.org/1999/xlink" x="0px" y="0px"
	 viewBox="0 0 189.7 46.5" style="enable-background:new 0 0 189.7 46.5;" xml:space="preserve">
<style type="text/css">
	.st0{fill:#5528E5;}
</style>
<g id="Group_1228" transform="translate(-662.757 -447)">
	<path id="Rectangle_613" class="st0" d="M670.8,447h30.5c4.4,0,8,3.6,8,8v30.5c0,4.4-3.6,8-8,8h-30.5c-4.4,0-8-3.6-8-8V455
		C662.8,450.6,666.3,447,670.8,447z"/>
</g>
<g>
	<path class="st0" d="M60.5,14.3h3.9v13.4c0,3.8-2.4,5.9-5.9,5.9c-3.6,0-6.1-2.2-6.1-6h3.8c0,1.6,0.8,2.6,2.2,2.6
		c1.4,0,2.1-1,2.1-2.5V14.3z"/>
	<path class="st0" d="M79.9,17.4h-7.2v4.8H79v3h-6.4v5.1h7.2v3.1H68.8V14.2h11.1V17.4z"/>
	<path class="st0" d="M90.5,14.3c4.6,0,6.9,2.7,6.9,5.9c0,2.3-1.3,4.7-4.3,5.5l4.6,7.7h-4.4L89,25.9h-1.8v7.4h-3.8V14.3H90.5z
		 M90.4,17.4h-3.2V23h3.2c2.1,0,3.1-1.1,3.1-2.8C93.4,18.5,92.5,17.4,90.4,17.4z"/>
	<path class="st0" d="M109.7,33.5c-5.4,0-9.8-4-9.8-9.8c0-5.7,4.4-9.8,9.8-9.8c5.4,0,9.8,4,9.8,9.8
		C119.5,29.5,115.1,33.5,109.7,33.5z M109.7,30.1c3.4,0,5.8-2.5,5.8-6.4s-2.4-6.3-5.8-6.3c-3.5,0-5.9,2.4-5.9,6.3
		S106.2,30.1,109.7,30.1z"/>
	<path class="st0" d="M122.3,14.3h4.3l6.1,14.2l6.1-14.2h4.3v19.1h-3.8V20.9l-5.1,12.4h-2.9l-5.1-12.4v12.4h-3.8V14.3z"/>
	<path class="st0" d="M158,17.4h-7.2v4.8h6.4v3h-6.4v5.1h7.2v3.1h-11.1V14.2H158V17.4z"/>
	<path class="st0" d="M163.1,33.5c-1.4,0-2.4-1-2.4-2.2s1-2.2,2.4-2.2c1.3,0,2.3,1,2.3,2.2S164.5,33.5,163.1,33.5z"/>
	<path class="st0" d="M168.5,14.3h11.8v3.1h-8v4.9h6.1v3h-6.1v8.1h-3.8V14.3z"/>
</g>
</svg>
