<?xml version="1.0" encoding="utf-8"?>
<!-- Generator: Adobe Illustrator 27.0.1, SVG Export Plug-In . SVG Version: 6.00 Build 0)  -->
<svg version="1.1" id="Layer_1" xmlns="http://www.w3.org/2000/svg" xmlns:xlink="http://www.w3.org/1999/xlink" x="0px" y="0px"
	 viewBox="0 0 424.4 348.9" style="enable-background:new 0 0 424.4 348.9;" xml:space="preserve">
<style type="text/css">
	.st0{fill:#FCFCFC;}
	.st1{fill:#727272;}
</style>
<polygon class="st0" points="316.7,163.8 411,163.8 377.3,222.4 316.7,222.4 "/>
<path class="st1" d="M203.7,167.5V0h-73.2v204.6c0,22.3-10.3,33.4-27.8,33.4c-18.8,0-30-12.4-30-38.1H0c0,53.6,27.2,87.3,69.1,99
	L203.7,167.5z"/>
<path class="st1" d="M321.9,48.4l-93,91.7v208.7H302c-1.4,1.4,0-241.8,0-241.8h122.4V48.4H321.9z"/>
<path class="st0" d="M370.3,0.1C346,24.4,308.1,63.8,284,88.9C198.3,178,109.1,264.4,18.7,348.8c85.1-89.7,172.2-178.2,262.1-263.2
	C306.1,61.7,345.7,24.3,370.3,0.1L370.3,0.1z"/>
</svg>
